<svg width="366" height="245" viewBox="0 0 366 245" fill="none" xmlns="http://www.w3.org/2000/svg">
<path d="M116.726 78.9999C107.126 80.1995 96.3927 89.4998 92.226 93.9999C88.5594 98.3333 80.326 108.6 76.726 115C72.226 123 72.226 136.5 74.226 150.5C76.226 164.5 96.726 175.5 101.226 177C105.726 178.5 125.726 178.5 133.226 179C139.226 179.4 145.393 185.167 147.726 188C149.059 188 152.026 187.4 153.226 185C154.726 182 161.226 178 163.726 175.5C166.226 173 171.226 168.5 172.226 166.5C173.226 164.5 176.226 163.5 179.726 162C182.526 160.8 178.559 158.5 176.226 157.5C176.226 153.5 175.226 144.3 171.226 139.5C166.226 133.5 176.226 121.5 176.226 111.5C176.226 101.5 162.226 90.4999 153.226 84.4999C144.226 78.4999 128.726 77.5004 116.726 78.9999Z" fill="#92FFFE"/>
<path d="M157.18 202.299C154.486 202.526 151.991 202.836 149.501 202.92C145.12 203.072 143.233 200.682 143.831 197.026C144.134 195.147 144.528 192.748 143.647 191.342C141.57 187.672 138.205 184.882 134.152 183.471C131.131 182.523 128.022 181.844 124.861 181.44C120.609 180.915 116.292 180.784 112 180.53C106.194 180.239 100.49 179.103 95.0755 177.159C90.4807 175.522 86.3118 172.959 82.8332 169.631C79.3546 166.304 76.6423 162.286 74.8683 157.832C71.88 150.842 70.0048 143.419 69.3064 135.816C68.6234 129.283 69.3687 122.642 71.4932 116.331C73.6178 110.02 77.0733 104.183 81.632 99.2044C87.1493 92.842 93.525 87.2379 100.575 82.5541C115 73.1113 130.211 70.6316 146.327 76.9678C158.848 81.6592 169.251 90.4089 175.841 101.79C178.162 105.872 179.436 110.467 179.555 115.19C179.779 119.69 179.374 124.217 178.349 128.645C178.186 129.312 178.092 130 177.899 130.666C175.898 137.25 176.117 144.23 178.522 150.557C179.003 152.341 179.38 154.153 179.65 155.984C179.887 156.891 180.177 157.782 180.518 158.653C182.704 159.026 184.846 159.589 186.918 160.337C188.157 160.889 189.135 161.869 189.67 163.094C190.204 164.319 190.259 165.705 189.825 166.994C189.358 168.982 188.575 170.944 187.893 173.08C188.82 173.928 189.52 174.988 189.934 176.169C190.348 177.35 190.464 178.62 190.272 179.871C190.205 180.937 190.43 182.011 190.414 183.093C190.392 183.527 190.491 183.955 190.702 184.33C190.913 184.706 191.227 185.015 191.61 185.223C192.583 185.898 193.372 186.795 193.91 187.84C194.447 188.885 194.719 190.047 194.702 191.23C194.844 193.926 194.435 196.638 193.5 199.209C192.565 201.78 191.122 204.158 189.255 206.205C186.245 209.782 182.306 212.268 178.346 214.681C177.106 215.362 175.734 215.767 174.33 215.867C171.311 216.17 168.777 215.285 167.465 212.389C167.205 211.669 166.713 211.056 166.06 210.642C165.408 210.228 164.63 210.034 163.843 210.089C161.354 210.088 159.932 208.349 158.847 206.443C158.217 205.093 157.66 203.71 157.18 202.299ZM131.264 142.352C130.179 141.882 129.282 141.502 128.392 141.104C122.707 138.74 117.775 134.979 114.063 130.176C113.366 129.247 112.849 128.198 112.536 127.08C112.344 126.453 112.312 125.787 112.442 125.137C112.572 124.487 112.86 123.872 113.282 123.347C113.703 122.821 114.246 122.399 114.863 122.117C115.48 121.835 116.154 121.702 116.826 121.728C117.729 121.713 118.622 121.869 119.455 122.189C121.296 122.897 123.067 123.759 124.748 124.768C129.054 127.37 132.639 130.951 135.21 135.217C135.631 136.07 136.118 137.057 137.414 136.752C139.133 136.365 140.985 136.191 142.024 134.367C141.825 133.963 141.654 133.615 141.564 133.199C139.647 128.306 138.42 123.164 137.917 117.911C137.77 116.546 137.943 115.158 138.424 113.85C138.904 112.543 139.679 111.351 140.691 110.364C141.04 109.926 141.475 109.558 141.969 109.284C142.462 109.009 143.004 108.833 143.562 108.766C144.121 108.699 144.684 108.743 145.218 108.894C145.753 109.045 146.247 109.301 146.673 109.646C148.518 110.636 149.927 112.245 150.647 114.186C151.7 117.103 152.525 120.1 153.116 123.151C153.562 125.311 153.54 127.552 153.053 129.73C152.566 131.909 151.623 133.977 150.284 135.804C149.88 136.247 149.642 136.809 149.611 137.395C149.581 137.98 149.759 138.551 150.116 139.011C151.927 142.01 153.622 145.066 155.533 148.001C158.611 152.718 161.835 157.349 164.972 162.037C166.129 163.768 167.227 165.556 168.456 167.461C170.422 165.891 172.491 164.451 174.649 163.151C178.55 161.116 177.542 159.981 175.522 157.588C174.981 157.03 174.474 156.442 174.003 155.826C173.073 154.587 172.276 153.256 171.624 151.853C168.667 144.616 168.058 136.608 169.877 128.89C170.444 126.49 170.971 124.068 171.4 121.653C172.873 113.492 171.464 105.999 166.115 99.6399C163.751 96.796 161.123 94.1753 158.261 91.8101C150.033 85.0712 140.569 80.8394 129.55 80.5264C121.4 80.3354 113.328 82.7168 106.527 87.3186C101.244 91.0042 96.3386 95.1896 91.8845 99.8117C80.863 110.436 76.4772 123.339 77.7807 138.039C78.3166 143.683 79.5566 149.222 81.473 154.533C82.7341 158.391 84.9145 161.879 87.838 164.714C90.7615 167.549 94.3461 169.652 98.3022 170.853C104.499 172.888 110.954 173.304 117.448 173.77C122.426 174.093 127.372 174.7 132.261 175.588C137.804 176.61 142.784 179.428 146.407 183.592C146.903 184.157 147.532 184.642 148.245 185.294L154.054 180.059C153.166 176.892 151.369 174.063 148.873 171.901C143.63 166.926 137.954 162.404 131.907 158.382C130.043 157.097 128.338 155.957 125.934 157.213C125.167 157.477 124.352 157.564 123.556 157.465C115.925 157.403 108.492 155.449 101.949 151.786C100.105 150.811 98.6555 149.262 97.8216 147.378C96.6887 144.728 97.3063 142.959 99.8672 141.375C102.259 140.015 105.068 139.589 107.714 140.184C113.841 141.11 119.183 143.846 124.476 146.717C125.832 147.443 127.163 148.294 128.569 149.149C129.503 148.27 130.231 147.204 130.697 146.028C131.164 144.851 131.357 143.595 131.264 142.352ZM137.955 143.041C138.133 146.609 136.875 150.143 134.449 152.888L136.68 154.48C144.916 160.531 153.558 166.145 159.44 174.906L165.809 169.338C158.238 160.03 150.789 150.996 144.817 140.969L137.955 143.041ZM184.836 163.889C182.174 163.039 180.188 163.265 178.548 164.925C175.378 168.12 172.214 171.326 169.135 174.616C165.19 178.849 161.431 183.284 157.406 187.444C155.141 189.774 152.481 191.742 149.555 194.259L149.459 196.44C154.25 196.533 158.112 194.391 161.645 192.021C171.035 185.69 178.641 177.117 183.71 167.15C184.153 166.098 184.536 165.024 184.858 163.934L184.836 163.889ZM185.135 177.55C179.436 187.416 170.926 195.495 160.679 200.769C161.973 205.71 164.461 206.59 168.42 203.647C168.577 203.517 168.726 203.379 168.866 203.232C173.563 198.586 178.327 193.991 182.973 189.301C186.172 186.049 186.367 182.131 185.157 177.595L185.135 177.55ZM171.439 208.184C172.547 210.637 172.755 210.855 174.874 209.782C177.294 208.588 179.593 207.148 181.875 205.702C187.039 202.416 189.541 197.458 190.888 191.856C191.145 191.205 191.207 190.502 191.068 189.829C190.928 189.156 190.592 188.542 190.101 188.06C185.183 195.924 178.085 201.713 171.461 208.229L171.439 208.184ZM119.199 150.742C114.625 148.479 110.271 145.604 104.281 146.131C107.523 148.48 113.412 150.36 119.199 150.742ZM144.896 116.868C144.171 120.736 144.741 124.693 146.523 128.146C147.476 124.035 146.414 120.416 144.92 116.857L144.896 116.868Z" fill="#92FFFE"/>
<path d="M258.43 130.107C257.921 130.228 257.285 130.379 256.522 130.56C255.738 130.656 254.84 130.645 253.826 130.527C252.554 130.829 251.676 130.903 251.191 130.749C250.687 130.51 250.194 130.134 249.714 129.621C248.479 128.57 248.193 127.742 248.856 127.137C249.499 126.447 251.349 125.56 254.407 124.477C255.534 123.941 257.604 123.226 260.617 122.332C263.695 121.333 267.217 120.319 271.183 119.288C275.214 118.153 279.255 117.06 283.306 116.01C287.442 114.939 291.122 114.022 294.345 113.257C297.632 112.388 299.955 111.792 301.312 111.47C303.517 110.947 305.022 110.68 305.825 110.669C306.629 110.657 307.608 111.007 308.762 111.719C310.336 112.69 311.094 113.809 311.036 115.077C310.959 116.26 309.904 116.913 307.873 117.036C307.299 117.262 306.217 117.608 304.626 118.075C303.034 118.542 301.495 119.042 300.009 119.574C299.669 119.654 298.535 119.968 296.604 120.516C294.738 120.958 292.373 121.564 289.509 122.333C286.626 123.017 283.54 123.793 280.252 124.663C277.029 125.427 273.901 126.214 270.868 127.023C267.814 127.747 265.195 128.413 263.01 129.021C260.805 129.544 259.278 129.906 258.43 130.107ZM319.321 133.806C318.833 134.012 318.441 134.06 318.146 133.951C317.831 133.757 317.506 133.52 317.172 133.241C316.207 132.574 315.228 132.224 314.235 132.191C313.306 132.053 312.899 131.657 313.012 131.003C313.012 131.003 313.111 130.666 313.31 129.991C313.508 129.317 313.844 128.655 314.317 128.005C315.598 126.985 316.899 126.049 318.22 125.198C319.606 124.243 321.323 122.984 323.372 121.423C325.506 119.842 328.292 117.614 331.731 114.737C333.804 112.902 335.598 111.401 337.113 110.236C338.713 109.05 339.889 107.965 340.641 106.98C341.458 105.89 341.693 104.804 341.347 103.722C340.266 102.186 337.535 100.684 333.155 99.2143C328.775 97.7447 323.081 96.587 316.071 95.741C313.77 95.4806 311.66 95.085 309.743 94.5544C307.825 94.0237 306.511 93.3947 305.801 92.6672C305.071 91.8549 305.272 91.0011 306.403 90.1056C306.892 89.9001 307.55 89.6543 308.378 89.3683C309.186 88.9975 310.279 88.6936 311.656 88.4566C313.098 88.1146 314.822 88.0191 316.829 88.1703C320.229 88.5286 322.752 88.7811 324.4 88.9279C326.132 89.0546 327.965 89.6054 329.898 90.5802C333.168 91.1484 335.928 92.0169 338.176 93.1858C340.424 94.3548 342.72 95.9155 345.065 97.8679L350.778 102.694L352.32 106.36C351.661 106.606 350.744 107.271 349.568 108.357C348.372 109.357 347.699 109.92 347.55 110.045C346.778 110.945 345.836 111.885 344.725 112.865C343.613 113.845 342.118 115.096 340.239 116.616C338.445 118.117 336.01 120.128 332.935 122.649C329.525 124.891 327.252 126.64 326.116 127.895C324.981 129.149 323.889 130.215 322.843 131.09C322.35 131.655 321.729 132.25 320.982 132.875C320.319 133.48 319.766 133.791 319.321 133.806Z" fill="#92FFFE"/>
<g clip-path="url(#clip0_222_230)">
<path d="M59.4722 37.9089C60.7257 37.9987 61.9356 38.4071 62.9871 39.0954C64.0387 39.7837 64.897 40.7292 65.4808 41.8421C68.906 48.4561 72.1846 55.1456 75.4491 61.8342C76.5696 64.1107 76.2738 64.956 74.3736 66.0655C73.9854 66.2929 73.5536 66.4359 73.1064 66.4852C72.6592 66.5344 72.2067 66.4888 71.7783 66.3513C71.3499 66.2138 70.9553 65.9876 70.6203 65.6873C70.2853 65.387 70.0173 65.0194 69.834 64.6086C66.2595 57.8196 62.7611 50.9859 59.3389 44.1076C58.85 43.143 58.6064 42.0727 58.6297 40.9916C58.6529 39.9104 58.9423 38.8516 59.4722 37.9089Z" fill="#92FFFE"/>
<path d="M24.5948 68.4661C25.3594 68.2483 26.1631 68.205 26.9466 68.3393C27.7302 68.4735 28.4736 68.782 29.122 69.242C33.7277 71.9716 38.3335 74.7012 42.8604 77.5532C46.3392 79.7419 49.7073 82.1077 53.0998 84.4255C53.8495 84.9851 54.5699 85.5829 55.2581 86.2167C54.7975 86.9804 54.4881 87.598 54.0977 88.1537C53.891 88.5079 53.6139 88.816 53.2834 89.0589C52.953 89.3018 52.5763 89.4743 52.1766 89.5659C51.7768 89.6575 51.3626 89.6661 50.9593 89.5913C50.5561 89.5165 50.1725 89.3598 49.8323 89.1309C43.1762 85.0211 36.2705 81.2634 30.5772 75.7493C28.9046 74.1172 27.2686 72.4662 25.6956 70.7201C25.2309 70.0206 24.8608 69.2627 24.5948 68.4661Z" fill="#92FFFE"/>
<path d="M88.3448 31.8403C89.049 32.6989 89.6933 33.6049 90.2733 34.5519C92.2586 38.2588 93.4075 42.3558 93.6391 46.5545C93.7155 49.4151 94.0967 52.2742 94.3857 55.1344C94.4711 55.6687 94.4323 56.2155 94.2721 56.7323C94.112 57.2491 93.8349 57.722 93.4623 58.1144C91.4943 60.2682 88.7636 59.3256 87.8813 56.6536C87.7368 56.1257 87.6531 55.5829 87.6321 55.036C87.2676 50.9379 86.6971 46.8476 86.6383 42.734C86.7505 39.6338 87.06 36.544 87.565 33.4832C87.7625 32.908 88.0241 32.3569 88.3448 31.8403Z" fill="#92FFFE"/>
<path d="M53.0763 108.027C52.4918 108.953 52.2664 109.696 51.7712 110.011C49.9021 111.248 47.9527 112.36 45.936 113.338C40.8874 115.682 35.7633 117.879 30.6139 120.138C30.2004 120.342 29.7746 120.52 29.3391 120.671C27.7859 121.13 26.3589 120.627 25.958 119.488C25.6743 118.81 25.6607 118.049 25.9202 117.361C26.1796 116.673 26.6924 116.11 27.3534 115.788C33.0629 113.197 38.746 110.575 44.5348 108.181C47.2732 107.116 50.3014 107.061 53.0763 108.027Z" fill="#92FFFE"/>
</g>
<g clip-path="url(#clip1_222_230)">
<path d="M112.275 132.15C112.783 130.275 113.973 128.658 115.613 127.616C116.707 126.839 117.895 126.203 119.149 125.724C122.231 124.667 125.412 123.953 128.433 122.76C131.004 121.759 133.534 122.441 135.821 124.056C140.558 127.397 142.589 132.049 142.459 137.7C142.449 139.131 142.034 140.53 141.263 141.736C140.492 142.942 139.396 143.905 138.102 144.516C137.461 144.898 136.782 145.213 136.076 145.453C132.435 146.498 128.791 147.552 125.113 148.501C122.204 149.255 119.612 148.161 117.385 146.466C113.394 143.431 111.153 139.511 111.647 134.342C111.677 133.969 111.742 133.599 111.841 133.238C111.995 132.824 112.178 132.411 112.275 132.15ZM132.791 128.366C131.793 128.113 130.777 127.938 129.752 127.843C127.509 127.76 125.278 128.204 123.238 129.137C121.197 130.07 119.403 131.467 117.998 133.218C117.444 133.916 117.03 134.714 116.779 135.569C116.572 136.2 116.571 136.88 116.775 137.512C118.698 142.317 121.494 144.602 126.738 141.798C127.66 141.339 128.655 141.046 129.678 140.933C131.83 140.653 133.873 139.821 135.608 138.517C136.168 138.139 136.625 137.627 136.936 137.027C137.248 136.428 137.404 135.76 137.392 135.085C137.313 132.978 135.265 128.925 132.791 128.366Z" fill="#121621"/>
</g>
<defs>
<clipPath id="clip0_222_230">
<rect width="104.8" height="49.16" fill="white" transform="translate(0 90.0608) rotate(-41.2843)"/>
</clipPath>
<clipPath id="clip1_222_230">
<rect width="30.7594" height="28.3704" fill="white" transform="translate(117.86 117) rotate(20.3364)"/>
</clipPath>
</defs>
</svg>
