 <svg width="159" height="31" viewBox="0 0 159 31" fill="none" xmlns="http://www.w3.org/2000/svg">
                <path
                    d="M11.0067 3.59934C13.2564 3.59934 15.2038 3.9743 16.8488 4.72422C18.518 5.47415 19.8001 6.53856 20.6952 7.91745C21.5903 9.29634 22.0378 10.9292 22.0378 12.8161C22.0378 14.6789 21.5903 16.3118 20.6952 17.7148C19.8001 19.0937 18.518 20.1582 16.8488 20.9081C15.2038 21.6338 13.2564 21.9967 11.0067 21.9967H5.89023V29H0.0117929V3.59934H11.0067ZM10.6801 17.2068C12.446 17.2068 13.7886 16.8319 14.7079 16.0819C15.6272 15.3078 16.0868 14.2192 16.0868 12.8161C16.0868 11.3889 15.6272 10.3003 14.7079 9.55035C13.7886 8.77623 12.446 8.38918 10.6801 8.38918H5.89023V17.2068H10.6801ZM31.2421 12.0541C31.9195 11.1107 32.8266 10.397 33.9636 9.91322C35.1248 9.42939 36.4553 9.18748 37.9552 9.18748V14.4128C37.3262 14.3644 36.9029 14.3402 36.6851 14.3402C35.0643 14.3402 33.7943 14.7998 32.875 15.7191C31.9558 16.6142 31.4961 17.9689 31.4961 19.7832V29H25.8354V9.47778H31.2421V12.0541ZM50.4332 29.2903C48.377 29.2903 46.5264 28.8669 44.8814 28.0203C43.2606 27.1494 41.9905 25.9519 41.0713 24.4279C40.152 22.9038 39.6924 21.1742 39.6924 19.2389C39.6924 17.3036 40.152 15.5739 41.0713 14.0499C41.9905 12.5259 43.2606 11.3405 44.8814 10.4938C46.5264 9.62292 48.377 9.18748 50.4332 9.18748C52.4895 9.18748 54.328 9.62292 55.9488 10.4938C57.5696 11.3405 58.8397 12.5259 59.7589 14.0499C60.6782 15.5739 61.1378 17.3036 61.1378 19.2389C61.1378 21.1742 60.6782 22.9038 59.7589 24.4279C58.8397 25.9519 57.5696 27.1494 55.9488 28.0203C54.328 28.8669 52.4895 29.2903 50.4332 29.2903ZM50.4332 24.6456C51.8847 24.6456 53.0701 24.1618 53.9893 23.1941C54.9328 22.2023 55.4045 20.8839 55.4045 19.2389C55.4045 17.5939 54.9328 16.2876 53.9893 15.3199C53.0701 14.3281 51.8847 13.8322 50.4332 13.8322C48.9818 13.8322 47.7843 14.3281 46.8409 15.3199C45.8974 16.2876 45.4257 17.5939 45.4257 19.2389C45.4257 20.8839 45.8974 22.2023 46.8409 23.1941C47.7843 24.1618 48.9818 24.6456 50.4332 24.6456ZM71.1266 9.91322H76.1341V14.2676H71.2717V29H65.611V14.2676H62.5992V9.91322H65.611V9.04234C65.611 6.81676 66.2641 5.0508 67.5705 3.74448C68.901 2.43816 70.7637 1.785 73.1586 1.785C74.0053 1.785 74.8036 1.88177 75.5535 2.0753C76.3276 2.24464 76.9687 2.49864 77.4767 2.83732L75.989 6.93771C75.3358 6.47808 74.5738 6.24826 73.7029 6.24826C71.9853 6.24826 71.1266 7.19172 71.1266 9.07862V9.91322ZM81.8674 9.47778H87.5281V29H81.8674V9.47778ZM84.6978 6.75628C83.6576 6.75628 82.8109 6.45389 82.1577 5.84911C81.5045 5.24433 81.178 4.49441 81.178 3.59934C81.178 2.70427 81.5045 1.95434 82.1577 1.34956C82.8109 0.744786 83.6576 0.442397 84.6978 0.442397C85.738 0.442397 86.5847 0.732691 87.2378 1.31328C87.891 1.89386 88.2176 2.6196 88.2176 3.49048C88.2176 4.43393 87.891 5.22014 87.2378 5.84911C86.5847 6.45389 85.738 6.75628 84.6978 6.75628ZM105.366 28.0565C104.809 28.4678 104.12 28.7823 103.298 29C102.499 29.1935 101.653 29.2903 100.757 29.2903C98.4351 29.2903 96.6329 28.6976 95.3507 27.5122C94.0928 26.3269 93.4638 24.5851 93.4638 22.287V14.2676H90.452V9.91322H93.4638V5.15966H99.1245V9.91322H103.987V14.2676H99.1245V22.2144C99.1245 23.0369 99.3302 23.678 99.7414 24.1376C100.177 24.573 100.782 24.7907 101.556 24.7907C102.451 24.7907 103.213 24.5488 103.842 24.065L105.366 28.0565Z"
                    fill="white" />
                <path
                    d="M114.461 30.4938C113.413 30.2317 112.47 29.7076 111.631 28.9214C110.818 28.1352 110.294 27.3227 110.058 26.4841C110.032 26.1434 109.993 25.6979 109.941 25.1476C109.914 24.5972 109.901 24.0862 109.901 23.6145C109.927 23.1427 109.967 22.8676 110.019 22.7889C110.098 22.7365 110.137 22.5793 110.137 22.3172C110.111 22.2124 110.124 22.042 110.176 21.8062C110.255 21.5441 110.334 21.282 110.412 21.02C110.543 20.7055 110.609 20.4565 110.609 20.2731C110.609 20.0634 110.596 19.9062 110.569 19.8013C110.569 19.8013 110.609 19.7227 110.687 19.5655C110.766 19.382 110.858 19.2379 110.963 19.1331C111.12 18.9758 111.185 18.8186 111.159 18.6613C111.159 18.5041 111.159 18.4255 111.159 18.4255C111.133 18.3206 111.159 18.1765 111.238 17.993C111.316 17.8096 111.395 17.6655 111.474 17.5606C111.526 17.5082 111.592 17.4034 111.67 17.2461C111.775 17.0627 111.827 16.971 111.827 16.971C111.827 16.8924 111.88 16.6827 111.985 16.342C112.116 16.0013 112.26 15.6344 112.417 15.2413C112.574 14.822 112.718 14.442 112.85 14.1013C113.007 13.7606 113.125 13.5379 113.203 13.433V13.3544C113.308 13.0923 113.452 12.8172 113.636 12.5289C113.662 12.3978 113.727 12.1882 113.832 11.8999C113.937 11.5854 114.055 11.284 114.186 10.9958C114.474 10.3668 114.828 9.65921 115.247 8.873C115.693 8.06058 116.165 7.26127 116.663 6.47506C117.161 5.66264 117.632 4.94194 118.078 4.31298C118.55 3.6578 118.956 3.17297 119.296 2.85849C119.742 2.36055 120.096 2.09848 120.358 2.07227C120.62 2.04607 120.947 2.22952 121.341 2.62262C121.524 2.80607 121.655 3.02883 121.734 3.2909C121.812 3.55297 121.839 3.78883 121.812 3.99849C121.812 4.18194 121.76 4.28677 121.655 4.31298C121.472 4.4178 121.196 4.71918 120.83 5.21712C120.463 5.68885 120.043 6.2523 119.572 6.90747C119.126 7.56265 118.681 8.24403 118.235 8.95162C117.816 9.633 117.449 10.2489 117.134 10.7992C116.794 11.5592 116.479 12.2275 116.191 12.8041C115.903 13.3544 115.758 13.6296 115.758 13.6296C115.732 13.7082 115.706 13.7737 115.68 13.8261C115.654 13.8785 115.627 13.931 115.601 13.9834C115.208 14.7958 114.881 15.5427 114.618 16.2241C114.356 16.8792 114.094 17.5737 113.832 18.3075C113.675 18.491 113.583 18.6744 113.557 18.8579C113.531 19.0413 113.518 19.1331 113.518 19.1331C113.465 19.1068 113.426 19.1724 113.4 19.3296C113.374 19.4606 113.321 19.6179 113.243 19.8013C113.112 19.9062 113.033 20.0765 113.007 20.3124C112.981 20.522 112.967 20.7317 112.967 20.9413C112.784 21.4131 112.614 21.9896 112.456 22.671C112.299 23.3262 112.181 23.9682 112.103 24.5972C112.05 25.2 112.037 25.6717 112.063 26.0124C112.116 26.4579 112.338 26.8641 112.732 27.231C113.151 27.5717 113.649 27.86 114.225 28.0959C114.514 28.2007 114.763 28.2924 114.972 28.371C115.182 28.4234 115.378 28.4497 115.562 28.4497C115.772 28.4759 116.034 28.4759 116.348 28.4497C116.689 28.3972 117.147 28.3186 117.724 28.2138H117.685C118.025 28.1614 118.379 28.0959 118.746 28.0172C119.139 27.9124 119.506 27.8207 119.847 27.7421C120.161 27.6896 120.463 27.6372 120.751 27.5848C121.039 27.5062 121.262 27.4407 121.419 27.3883C121.996 27.231 122.415 27.1262 122.677 27.0738C122.939 26.9952 123.136 27.0083 123.267 27.1131C123.398 27.2179 123.49 27.349 123.542 27.5062C123.594 27.6372 123.581 27.8207 123.503 28.0565C123.45 28.1876 123.241 28.3841 122.874 28.6462C122.507 28.8821 122.061 29.1179 121.537 29.3538C121.039 29.5897 120.541 29.7862 120.043 29.9435C119.519 30.1793 118.89 30.3628 118.156 30.4938C117.449 30.6248 116.754 30.6904 116.073 30.6904C115.418 30.6904 114.881 30.6248 114.461 30.4938ZM126.875 27.5848C126.77 27.3752 126.639 27.2179 126.482 27.1131C126.324 26.9821 126.246 26.8641 126.246 26.7593C126.246 26.6545 126.233 26.5496 126.206 26.4448C126.206 26.3138 126.154 26.1958 126.049 26.091C125.918 25.9338 125.931 25.58 126.089 25.0296C126.246 24.4531 126.508 23.7586 126.875 22.9462C127.242 22.1076 127.674 21.2296 128.172 20.3124C128.382 20.1027 128.591 19.8275 128.801 19.4868C129.011 19.1462 129.168 18.9234 129.273 18.8186C129.273 18.7137 129.312 18.622 129.391 18.5434C129.469 18.4386 129.561 18.3862 129.666 18.3862V18.1503C129.666 18.0193 129.784 17.7965 130.02 17.482C130.282 17.1675 130.596 16.8268 130.963 16.4599C131.33 16.0668 131.71 15.6999 132.103 15.3592C132.496 14.9923 132.824 14.7303 133.086 14.573C133.636 14.2061 134.2 13.9834 134.776 13.9047C135.379 13.8261 135.89 13.9572 136.309 14.2979C136.388 14.3765 136.519 14.5075 136.702 14.691C136.886 14.8744 137.096 15.0841 137.331 15.3199C137.593 15.5296 137.856 15.7523 138.118 15.9882L139.572 17.2855L138.864 19.251C138.524 20.2993 138.432 21.2165 138.589 22.0027C138.773 22.7889 139.035 23.4703 139.376 24.0469C139.507 24.3351 139.769 24.6103 140.162 24.8724C140.581 25.1345 140.974 25.2917 141.341 25.3441C141.551 25.3703 141.747 25.4489 141.931 25.58C142.114 25.711 142.206 25.9207 142.206 26.209C142.206 26.471 142.153 26.6807 142.049 26.8379C141.944 26.9952 141.76 27.1 141.498 27.1524C140.633 27.2572 139.821 27.0476 139.061 26.5234C138.327 25.9993 137.646 25.1345 137.017 23.9289C136.912 23.7717 136.768 23.4834 136.584 23.0641C136.427 22.6186 136.336 22.3303 136.309 22.1993C136.204 22.3303 136.008 22.5793 135.72 22.9462C135.431 23.2869 135.209 23.5358 135.051 23.6931C133.191 25.58 131.579 26.851 130.216 27.5062C128.88 28.1352 127.766 28.1614 126.875 27.5848ZM128.29 25.3834C128.29 25.5669 128.565 25.5669 129.115 25.3834C129.692 25.1738 130.308 24.8069 130.963 24.2827C131.854 23.5227 132.745 22.6841 133.636 21.7669C134.553 20.8496 135.287 19.9979 135.838 19.2117L136.702 17.7965C136.44 17.1937 136.152 16.7875 135.838 16.5779C135.549 16.342 135.3 16.2241 135.091 16.2241C134.75 16.2241 134.239 16.5386 133.558 17.1675C132.902 17.7965 132.195 18.6351 131.435 19.6834C130.675 20.7317 129.954 21.8848 129.273 23.1427C129.011 23.6669 128.775 24.1779 128.565 24.6758C128.382 25.1476 128.29 25.3834 128.29 25.3834ZM148.123 28.3317C147.599 28.2793 147.271 28.2138 147.14 28.1352C147.035 28.0565 146.904 27.8469 146.747 27.5062C146.538 27.2703 146.406 27.0869 146.354 26.9559C146.328 26.8248 146.328 26.7069 146.354 26.6021C146.485 26.6021 146.603 26.6021 146.708 26.6021C146.813 26.5758 146.878 26.5234 146.904 26.4448C146.904 26.3662 146.944 26.3138 147.022 26.2876C147.127 26.2614 147.232 26.2614 147.337 26.2876C147.835 26.3138 148.464 26.1565 149.224 25.8158C150.01 25.4489 150.849 24.951 151.74 24.322C152.657 23.6669 153.548 22.9462 154.413 22.16C155.094 21.2689 155.592 20.5744 155.907 20.0765C156.221 19.5524 156.404 19.1331 156.457 18.8186C156.509 18.4779 156.47 18.1896 156.339 17.9537C156.234 17.7441 155.854 17.6655 155.199 17.7179C154.544 17.7441 153.81 18.0193 152.998 18.5434C151.871 19.251 150.967 19.9062 150.285 20.5089C149.604 21.1117 148.975 21.7931 148.398 22.5531C148.189 22.8151 147.979 23.1296 147.769 23.4965C147.586 23.8634 147.429 24.1779 147.298 24.44C147.166 24.702 147.101 24.8331 147.101 24.8331C147.101 24.9379 146.944 25.0689 146.629 25.2262C146.341 25.3834 146.092 25.4621 145.882 25.4621C145.778 25.4096 145.633 25.3179 145.45 25.1869C145.293 25.0296 145.188 24.8331 145.135 24.5972C144.952 24.4662 144.821 24.3614 144.742 24.2827C144.664 24.2041 144.611 24.1124 144.585 24.0076C144.559 23.8503 144.598 23.6014 144.703 23.2607C144.808 22.92 144.952 22.3827 145.135 21.6489C145.293 20.9675 145.463 20.26 145.646 19.5262C145.856 18.7924 146.053 18.1634 146.236 17.6393C146.42 17.1151 146.551 16.8268 146.629 16.7744C146.629 16.7744 146.682 16.6565 146.786 16.4206C146.891 16.1848 146.944 15.9096 146.944 15.5951C146.996 15.2806 147.075 15.0054 147.18 14.7696C147.311 14.5337 147.376 14.3634 147.376 14.2585C147.481 14.1799 147.638 13.8654 147.848 13.3151C148.058 12.7647 148.32 12.0441 148.634 11.153C148.634 11.0744 148.726 10.8254 148.909 10.4061C149.093 9.96059 149.315 9.44955 149.578 8.873C149.84 8.27024 150.102 7.65437 150.364 7.0254C150.652 6.37023 150.888 5.79367 151.071 5.29574C151.386 4.85022 151.622 4.44401 151.779 4.07711C151.962 3.68401 152.146 3.44814 152.329 3.36952C152.46 3.34331 152.618 3.35642 152.801 3.40883C153.011 3.43504 153.207 3.50056 153.391 3.60539C153.6 3.71021 153.771 3.86746 153.902 4.07711C153.98 4.20815 154.033 4.32608 154.059 4.43091C154.085 4.53573 154.046 4.73229 153.941 5.02057C153.836 5.28264 153.627 5.74126 153.312 6.39643C153.024 7.0254 152.591 7.94265 152.015 9.14817C151.281 10.7206 150.678 12.1227 150.207 13.3544C149.735 14.5861 149.342 15.6737 149.027 16.6172C148.713 17.5606 148.424 18.373 148.162 19.0544L147.966 19.9193L148.949 18.9758C149.342 18.6875 149.774 18.3337 150.246 17.9144C150.718 17.4951 151.137 17.1282 151.504 16.8137C151.713 16.6565 151.989 16.4992 152.329 16.342C152.696 16.1586 153.05 16.0013 153.391 15.8703C153.731 15.7392 153.98 15.6606 154.138 15.6344C154.216 15.6082 154.413 15.5689 154.727 15.5165C155.042 15.4641 155.422 15.4379 155.867 15.4379C156.444 15.4379 156.902 15.5689 157.243 15.831C157.61 16.093 157.964 16.5123 158.304 17.0889C158.593 17.6393 158.711 18.2682 158.658 18.9758C158.606 19.6572 158.396 20.2993 158.029 20.902C157.898 21.0069 157.767 21.151 157.636 21.3344C157.505 21.4917 157.44 21.6227 157.44 21.7275C157.413 21.911 157.178 22.291 156.732 22.8676C156.287 23.4179 155.841 23.942 155.395 24.44C154.924 24.9379 154.347 25.4358 153.666 25.9338C152.984 26.4055 152.303 26.8379 151.622 27.231C150.967 27.5979 150.403 27.86 149.931 28.0172C149.722 28.0434 149.42 28.0959 149.027 28.1745C148.634 28.2269 148.333 28.2793 148.123 28.3317Z"
                    fill="#92FFFE" />
            </svg>