<svg width="15" height="15" viewBox="0 0 15 15" fill="none" xmlns="http://www.w3.org/2000/svg">
<path d="M3.78397 14.072C3.55997 13.88 3.27197 13.304 2.91997 12.344C2.59997 11.384 2.27997 10.264 1.95997 8.984C1.67197 7.672 1.43197 6.472 1.23997 5.384C1.11197 4.744 0.967966 4.2 0.807966 3.752C0.679966 3.304 0.567965 2.936 0.471965 2.648C0.311965 2.072 0.263966 1.592 0.327966 1.208C0.391966 0.824001 0.615965 0.519998 0.999965 0.295998C1.15997 0.199999 1.35197 0.136001 1.57597 0.104001C1.83197 0.0400016 2.02397 0.0240009 2.15197 0.0560005C2.53597 0.184001 2.88797 0.776002 3.20797 1.832C3.52797 2.856 3.81597 4.216 4.07197 5.912C4.19997 6.904 4.35997 7.752 4.55197 8.456C4.74397 9.16 4.83997 9.576 4.83997 9.704C4.96797 9.96 5.11197 10.216 5.27197 10.472C5.46397 10.696 5.68797 10.68 5.94397 10.424C6.07197 10.296 6.32797 10.008 6.71197 9.56C7.12797 9.112 7.52797 8.632 7.91197 8.12C8.58397 7.224 9.11197 6.488 9.49597 5.912C9.91197 5.336 10.376 4.728 10.888 4.088C11.112 3.768 11.368 3.416 11.656 3.032C11.944 2.648 12.232 2.296 12.52 1.976C12.84 1.624 13.128 1.416 13.384 1.352C14.152 1.224 14.568 1.384 14.632 1.832C14.696 2.28 14.408 2.952 13.768 3.848C13.512 4.232 13.304 4.6 13.144 4.952C13.016 5.272 12.888 5.496 12.76 5.624C12.504 6.136 12.104 6.792 11.56 7.592C11.016 8.36 10.488 9.08 9.97597 9.752C9.46397 10.392 9.11197 10.808 8.91997 11C8.79197 11.128 8.50397 11.368 8.05597 11.72C7.63997 12.072 7.23997 12.52 6.85597 13.064C6.08797 13.8 5.47997 14.248 5.03197 14.408C4.58397 14.568 4.16797 14.456 3.78397 14.072Z" fill="#92FFFE"/>
</svg>
