<svg width="99" height="100" viewBox="0 0 99 100" fill="none" xmlns="http://www.w3.org/2000/svg">
<path d="M51.8828 25.8183C47.6158 26.3515 42.845 30.4853 40.993 32.4855C39.3632 34.4116 35.7036 38.975 34.1035 41.8197C32.1033 45.3755 32.1033 51.376 32.9923 57.5988C33.8812 63.8216 42.9931 68.7109 44.9933 69.3776C46.9935 70.0443 55.8831 70.0443 59.2168 70.2666C61.8837 70.4444 64.6246 73.0075 65.6618 74.2669C66.2544 74.2669 67.573 74.0002 68.1064 72.9335C68.7731 71.6 71.6623 69.8221 72.7735 68.7109C73.8847 67.5997 76.1071 65.5995 76.5516 64.7105C76.9961 63.8216 78.3295 63.3771 79.8852 62.7104C81.1298 62.177 79.3666 61.1547 78.3295 60.7102C78.3295 58.9323 77.885 54.843 76.1071 52.7095C73.8847 50.0426 78.3295 44.7088 78.3295 40.264C78.3295 35.8192 72.1068 30.9298 68.1064 28.2629C64.1061 25.596 57.2166 25.1518 51.8828 25.8183Z" fill="#92FFFE"/>
<path d="M69.8636 80.6227C68.6658 80.7236 67.557 80.8612 66.4502 80.8986C64.5029 80.966 63.6642 79.9041 63.9301 78.2788C64.0648 77.4436 64.24 76.3776 63.8481 75.7525C62.9252 74.1211 61.4293 72.8809 59.6279 72.2537C58.2851 71.8327 56.9031 71.5308 55.4984 71.3513C53.6085 71.1178 51.6894 71.0597 49.7817 70.9465C47.2012 70.8173 44.6659 70.3124 42.2591 69.4483C40.2168 68.7207 38.3638 67.5813 36.8176 66.1025C35.2714 64.6237 34.0658 62.8376 33.2773 60.8577C31.9491 57.7509 31.1156 54.4516 30.8052 51.0721C30.5016 48.1681 30.8329 45.2163 31.7772 42.4114C32.7215 39.6064 34.2574 37.0119 36.2837 34.7989C38.736 31.9709 41.5699 29.48 44.7035 27.3981C51.1151 23.2009 57.8763 22.0988 65.0394 24.9151C70.6049 27.0003 75.229 30.8894 78.1578 35.9482C79.1896 37.7627 79.7557 39.8048 79.8089 41.9043C79.9085 43.9045 79.7281 45.9166 79.2729 47.8848C79.2004 48.181 79.1583 48.4869 79.0729 48.7832C78.1835 51.7096 78.2806 54.8118 79.3496 57.6242C79.5636 58.4171 79.731 59.2225 79.8512 60.0366C79.9565 60.4395 80.0853 60.8355 80.2368 61.2228C81.2084 61.3884 82.1604 61.6389 83.0815 61.9714C83.6321 62.2166 84.0668 62.6521 84.3045 63.1966C84.5423 63.741 84.5667 64.3572 84.3734 64.9302C84.1661 65.8136 83.8181 66.6858 83.5147 67.6352C83.9269 68.0124 84.238 68.4832 84.422 69.0083C84.606 69.5334 84.6576 70.0976 84.5724 70.6538C84.5423 71.1274 84.6427 71.6049 84.6356 72.0858C84.6255 72.2786 84.6697 72.4689 84.7634 72.6359C84.8571 72.8029 84.9967 72.9402 85.1668 73.0328C85.5997 73.3328 85.9501 73.7315 86.1892 74.1959C86.4282 74.6602 86.549 75.1768 86.5414 75.7028C86.6043 76.9012 86.4226 78.1067 86.007 79.2493C85.5913 80.3919 84.95 81.4489 84.1202 82.3589C82.7822 83.9487 81.0316 85.0538 79.2714 86.1264C78.7201 86.4288 78.1103 86.6087 77.4864 86.6532C76.1446 86.7879 75.0184 86.3947 74.4351 85.1076C74.3195 84.7875 74.1005 84.5152 73.8106 84.331C73.5206 84.1469 73.175 84.0606 72.8248 84.0851C71.7188 84.0849 71.0867 83.3117 70.6046 82.4644C70.3243 81.8646 70.0769 81.2499 69.8636 80.6227ZM58.3442 53.9771C57.8619 53.7686 57.4634 53.5993 57.0676 53.4225C54.5408 52.3719 52.3487 50.7002 50.6986 48.5654C50.3888 48.1524 50.1589 47.6862 50.0198 47.189C49.9348 46.9106 49.9205 46.6143 49.9783 46.3254C50.036 46.0364 50.1641 45.7634 50.3514 45.5297C50.5388 45.2959 50.78 45.1084 51.0543 44.9831C51.3286 44.8579 51.628 44.7985 51.9268 44.8102C52.3284 44.8034 52.7252 44.873 53.0953 45.0152C53.9136 45.3296 54.7008 45.7131 55.448 46.1613C57.3621 47.3179 58.9556 48.9095 60.0983 50.8058C60.2852 51.1848 60.5016 51.6237 61.0778 51.4883C61.8417 51.3162 62.6652 51.2387 63.1271 50.4281C63.0386 50.2486 62.9623 50.094 62.9226 49.909C62.0705 47.7342 61.5251 45.4486 61.3013 43.1137C61.236 42.507 61.3131 41.8898 61.5267 41.3087C61.7403 40.7276 62.0848 40.1977 62.5342 39.7592C62.6897 39.5644 62.8829 39.4011 63.1023 39.2791C63.3216 39.1571 63.5625 39.0788 63.8107 39.049C64.0588 39.0192 64.3092 39.0385 64.5467 39.1056C64.7842 39.1728 65.0041 39.2865 65.1932 39.4399C66.0135 39.8802 66.6394 40.5952 66.9599 41.4578C67.4275 42.7546 67.7942 44.0867 68.0569 45.4428C68.2552 46.403 68.2457 47.3989 68.0291 48.3671C67.8124 49.3353 67.3933 50.2546 66.7985 51.0666C66.6188 51.2636 66.5131 51.5136 66.4994 51.7737C66.4857 52.0339 66.5649 52.288 66.7235 52.4924C67.5286 53.8251 68.282 55.1834 69.1312 56.4881C70.4995 58.5848 71.9325 60.6432 73.3267 62.7271C73.8411 63.4964 74.3294 64.291 74.8755 65.1376C75.7492 64.4398 76.669 63.7999 77.6283 63.2222C79.362 62.3176 78.9139 61.8132 78.0163 60.7492C77.7758 60.5014 77.5503 60.24 77.3409 59.9663C76.9278 59.4154 76.5735 58.8237 76.2834 58.2001C74.9692 54.9837 74.6984 51.424 75.507 47.9935C75.7591 46.9269 75.9934 45.8504 76.1841 44.7767C76.8388 41.1493 76.2124 37.8189 73.8348 34.9925C72.7843 33.7284 71.6159 32.5635 70.3439 31.5123C66.6869 28.5169 62.48 26.636 57.5823 26.4968C53.96 26.4119 50.3721 27.4704 47.349 29.5159C45.0009 31.154 42.8205 33.0144 40.8407 35.0688C35.9419 39.791 33.9925 45.5262 34.5719 52.0603C34.8101 54.5688 35.3612 57.0307 36.213 59.3914C36.7736 61.1063 37.7427 62.6565 39.0422 63.9166C40.3416 65.1768 41.9349 66.1116 43.6933 66.6454C46.4478 67.55 49.3168 67.7349 52.2032 67.942C54.4158 68.0854 56.6143 68.3552 58.7874 68.7499C61.2511 69.2044 63.4646 70.4568 65.0752 72.3078C65.2954 72.5588 65.5753 72.7742 65.892 73.0644L68.4739 70.7372C68.0792 69.3297 67.2807 68.0723 66.1713 67.1112C63.8405 64.8999 61.3178 62.89 58.63 61.1025C57.8017 60.5313 57.0439 60.0246 55.9752 60.5827C55.6342 60.7002 55.2722 60.7385 54.9181 60.6948C51.5265 60.6672 48.2223 59.7989 45.3142 58.1707C44.4946 57.737 43.8503 57.0488 43.4797 56.211C42.9761 55.0334 43.2506 54.247 44.3889 53.5431C45.4522 52.9384 46.7004 52.7489 47.8766 53.0136C50.6001 53.4251 52.9745 54.6411 55.3272 55.9175C55.93 56.2402 56.5215 56.6181 57.1462 56.9983C57.5617 56.6079 57.885 56.1338 58.0924 55.611C58.2997 55.0881 58.3857 54.5298 58.3442 53.9771ZM61.3182 54.2837C61.3975 55.8692 60.8382 57.4401 59.7599 58.6605L60.7518 59.3679C64.4123 62.0577 68.2535 64.553 70.8681 68.4468L73.6988 65.9721C70.3338 61.8346 67.0227 57.8193 64.3683 53.3624L61.3182 54.2837ZM82.156 63.5499C80.9731 63.1723 80.0903 63.2728 79.361 64.0107C77.9522 65.4308 76.5459 66.8559 75.1772 68.3182C73.4236 70.1997 71.7528 72.1706 69.964 74.0199C68.9573 75.0557 67.7746 75.9303 66.4744 77.0489L66.4317 78.0185C68.5611 78.0597 70.2779 77.1077 71.8482 76.0543C76.0218 73.2404 79.4026 69.4296 81.6555 64.9995C81.8524 64.5319 82.0227 64.0546 82.1658 63.5699L82.156 63.5499ZM82.289 69.6222C79.7558 74.0073 75.9736 77.5982 71.4187 79.9426C71.9938 82.139 73.0996 82.5298 74.8594 81.2218C74.9292 81.1641 74.9954 81.1025 75.0578 81.0372C77.1453 78.9724 79.2631 76.9299 81.328 74.8452C82.7501 73.3999 82.8366 71.6585 82.2988 69.6422L82.289 69.6222ZM76.2012 83.2385C76.6937 84.3286 76.7865 84.4254 77.7281 83.9487C78.804 83.4182 79.8257 82.7779 80.8398 82.1352C83.1353 80.6746 84.2476 78.4708 84.846 75.981C84.9602 75.6918 84.9879 75.379 84.9259 75.0798C84.8639 74.7806 84.7147 74.5077 84.4961 74.2935C82.3104 77.7893 79.1552 80.362 76.211 83.2585L76.2012 83.2385ZM52.9815 57.7066C50.9485 56.7004 49.0132 55.4228 46.3508 55.6569C47.7916 56.701 50.4093 57.5367 52.9815 57.7066ZM64.4035 42.6502C64.0811 44.3693 64.3348 46.1282 65.1264 47.6629C65.55 45.8358 65.0783 44.2271 64.4139 42.6451L64.4035 42.6502Z" fill="#92FFFE"/>
<g clip-path="url(#clip0_222_795)">
<path d="M26.4343 7.55369C26.9915 7.59358 27.5292 7.77511 27.9966 8.08105C28.464 8.387 28.8455 8.80723 29.105 9.30193C30.6274 12.2417 32.0847 15.2151 33.5357 18.1881C34.0338 19.1999 33.9023 19.5756 33.0577 20.0688C32.8851 20.1699 32.6932 20.2334 32.4944 20.2553C32.2957 20.2772 32.0945 20.2569 31.9041 20.1958C31.7137 20.1347 31.5383 20.0342 31.3894 19.9007C31.2405 19.7672 31.1214 19.6038 31.0399 19.4212C29.4511 16.4036 27.8962 13.3662 26.375 10.3089C26.1577 9.88013 26.0495 9.40443 26.0598 8.92387C26.0701 8.44331 26.1987 7.97271 26.4343 7.55369Z" fill="#92FFFE"/>
<path d="M10.9324 21.1357C11.2722 21.0389 11.6294 21.0196 11.9777 21.0793C12.326 21.139 12.6564 21.2761 12.9446 21.4805C14.9918 22.6938 17.039 23.907 19.0511 25.1747C20.5974 26.1476 22.0944 27.1991 23.6023 28.2293C23.9355 28.478 24.2557 28.7438 24.5616 29.0255C24.3569 29.3649 24.2194 29.6395 24.0459 29.8864C23.954 30.0439 23.8308 30.1808 23.684 30.2888C23.5371 30.3967 23.3696 30.4734 23.192 30.5141C23.0143 30.5549 22.8301 30.5587 22.6509 30.5254C22.4717 30.4922 22.3012 30.4225 22.15 30.3208C19.1914 28.494 16.122 26.8238 13.5914 24.3729C12.848 23.6475 12.1208 22.9136 11.4216 22.1375C11.2151 21.8266 11.0506 21.4897 10.9324 21.1357Z" fill="#92FFFE"/>
<path d="M39.2678 4.85622C39.5808 5.23787 39.8672 5.64058 40.125 6.0615C41.0074 7.70916 41.5181 9.53017 41.621 11.3964C41.655 12.6679 41.8244 13.9387 41.9529 15.2101C41.9909 15.4475 41.9736 15.6906 41.9024 15.9203C41.8313 16.15 41.7081 16.3602 41.5425 16.5346C40.6677 17.492 39.454 17.073 39.0618 15.8853C38.9976 15.6507 38.9604 15.4094 38.951 15.1663C38.789 13.3448 38.5354 11.5267 38.5093 9.69828C38.5592 8.32032 38.6967 6.94693 38.9212 5.58646C39.009 5.33082 39.1253 5.08587 39.2678 4.85622Z" fill="#92FFFE"/>
<path d="M23.5917 38.7198C23.3319 39.1313 23.2317 39.4618 23.0116 39.6018C22.1808 40.1518 21.3144 40.6458 20.4179 41.0806C18.1739 42.1223 15.8964 43.0988 13.6075 44.1029C13.4237 44.1936 13.2345 44.2728 13.0409 44.3401C12.3505 44.5441 11.7163 44.3202 11.5381 43.8142C11.412 43.5127 11.406 43.1743 11.5213 42.8685C11.6366 42.5627 11.8645 42.3126 12.1583 42.1694C14.6961 41.0177 17.2221 39.8526 19.7952 38.7882C21.0123 38.3149 22.3583 38.2907 23.5917 38.7198Z" fill="#92FFFE"/>
</g>
<g clip-path="url(#clip1_222_795)">
<path d="M49.9039 49.4418C50.1296 48.6084 50.6588 47.8896 51.3876 47.4266C51.8738 47.0811 52.4018 46.7985 52.9591 46.5856C54.3294 46.1156 55.7432 45.7983 57.0858 45.268C58.2286 44.8229 59.3533 45.1261 60.3698 45.8439C62.4753 47.3292 63.3781 49.3966 63.3204 51.9085C63.3156 52.5446 63.1313 53.1665 62.7886 53.7025C62.4459 54.2385 61.9588 54.6668 61.3834 54.9381C61.0987 55.1081 60.7969 55.2478 60.4831 55.3548C58.8647 55.8192 57.2448 56.2876 55.6103 56.7097C54.3174 57.0446 53.165 56.5583 52.1753 55.8049C50.4013 54.4561 49.4053 52.7135 49.6246 50.4162C49.6382 50.2502 49.6671 50.0858 49.7111 49.9252C49.7793 49.7413 49.8609 49.5578 49.9039 49.4418ZM59.023 47.7597C58.5793 47.6474 58.1276 47.5697 57.672 47.5273C56.6752 47.4907 55.6837 47.6876 54.7766 48.1024C53.8695 48.5171 53.072 49.1383 52.4478 49.9162C52.2016 50.2266 52.0176 50.5815 51.9057 50.9615C51.8138 51.2419 51.8132 51.5442 51.9041 51.825C52.7588 53.9609 54.0015 54.9764 56.3326 53.7301C56.7422 53.5261 57.1845 53.396 57.6393 53.3458C58.5959 53.2213 59.504 52.8512 60.2751 52.2715C60.524 52.1036 60.7269 51.8761 60.8654 51.6096C61.0039 51.3432 61.0735 51.0464 61.0679 50.7462C61.0328 49.8099 60.1225 48.0081 59.023 47.7597Z" fill="#121621"/>
</g>
<defs>
<clipPath id="clip0_222_795">
<rect width="46.5818" height="21.8508" fill="white" transform="translate(0 30.7345) rotate(-41.2843)"/>
</clipPath>
<clipPath id="clip1_222_795">
<rect width="13.672" height="12.6101" fill="white" transform="translate(52.3862 42.7091) rotate(20.3364)"/>
</clipPath>
</defs>
</svg>
