<svg width="30" height="40" viewBox="0 0 30 40" fill="none" xmlns="http://www.w3.org/2000/svg">
                        <g clip-path="url(#clip0_222_195)">
                            <path
                                d="M14.0802 34.6571C13.4266 34.3995 12.81 34.1842 12.2204 33.9167C11.1826 33.447 11.0175 32.6707 11.5768 31.8846C11.8632 31.4801 12.2305 30.9647 12.1867 30.5342C12.1246 29.4364 11.6612 28.3959 10.8794 27.5985C10.2846 27.0286 9.63849 26.5112 8.9488 26.0524C8.01888 25.4392 7.02832 24.9107 6.05796 24.3562C4.73921 23.6188 3.54122 22.6953 2.50339 21.6163C1.62128 20.7036 0.944732 19.6235 0.516685 18.4443C0.088638 17.2651 -0.0815681 16.0127 0.0168619 14.7664C0.123663 12.7873 0.539429 10.8352 1.25002 8.97664C1.8413 7.37006 2.77759 5.90304 3.99718 4.6723C5.21677 3.44156 6.69195 2.47504 8.32549 1.83645C10.3412 0.984842 12.4697 0.409568 14.6496 0.12725C19.0937 -0.417478 22.9212 0.756791 25.9468 4.09692C28.3242 6.63794 29.7422 9.88375 29.9697 13.3051C30.0415 14.5274 29.8104 15.7487 29.2958 16.867C28.8312 17.9452 28.2168 18.957 27.4697 19.8745C27.3551 20.0115 27.2541 20.1615 27.1328 20.2952C25.9106 21.6041 25.1599 23.2614 24.9933 25.0184C24.9005 25.4911 24.7802 25.9583 24.6328 26.4177C24.5839 26.657 24.549 26.8988 24.5283 27.1419C24.9946 27.481 25.4287 27.8598 25.8255 28.2737C26.0506 28.5456 26.1659 28.8875 26.1497 29.2356C26.1336 29.5837 25.9872 29.9143 25.7379 30.1656C25.401 30.5766 24.9933 30.9452 24.589 31.3659C24.7075 31.6713 24.7489 31.9997 24.7096 32.3237C24.6703 32.6477 24.5516 32.9579 24.3632 33.2285C24.2251 33.4698 24.1543 33.7471 24.0263 33.9982C23.9712 34.0971 23.9452 34.2087 23.9512 34.3208C23.9571 34.433 23.9947 34.5414 24.06 34.6343C24.2093 34.9044 24.2899 35.2051 24.2951 35.5115C24.3004 35.8178 24.2302 36.1209 24.0903 36.3957C23.8136 37.0425 23.4069 37.6296 22.8939 38.1229C22.3809 38.6162 21.7717 39.0059 21.1018 39.2694C19.9899 39.7587 18.7871 39.8859 17.5876 39.9935C17.2206 40.0096 16.8546 39.946 16.5162 39.8076C15.7783 39.5303 15.2898 39.0313 15.3167 38.2028C15.3389 38.0043 15.2945 37.8043 15.1902 37.6322C15.0858 37.46 14.927 37.325 14.7372 37.247C14.1577 36.96 14.0263 36.3892 13.9926 35.8184C14.0007 35.4301 14.03 35.0425 14.0802 34.6571ZM14.9293 17.6499C14.7305 17.415 14.5654 17.2226 14.4037 17.0269C13.3511 15.8186 12.6345 14.3703 12.3214 12.8191C12.2659 12.5214 12.2659 12.2165 12.3214 11.9188C12.3488 11.7503 12.4179 11.5907 12.5228 11.4537C12.6278 11.3166 12.7654 11.2062 12.924 11.1319C13.0826 11.0575 13.2574 11.0214 13.4335 11.0267C13.6096 11.0319 13.7818 11.0784 13.9353 11.1621C14.1475 11.2627 14.3375 11.4023 14.4946 11.5731C14.8422 11.9508 15.1555 12.3568 15.4313 12.7865C16.1353 13.8916 16.5591 15.1424 16.6678 16.4365C16.6678 16.6844 16.6678 16.9714 17.0047 17.0497C17.4495 17.1573 17.901 17.3302 18.3524 17.0236C18.3524 16.9062 18.3524 16.8051 18.3794 16.6974C18.4949 15.3322 18.7997 13.9882 19.2857 12.7017C19.4083 12.3656 19.6082 12.0608 19.8703 11.8105C20.1323 11.5602 20.4497 11.3708 20.7985 11.2567C20.9304 11.1945 21.0738 11.1588 21.2202 11.1515C21.3667 11.1442 21.5131 11.1655 21.6509 11.2142C21.7886 11.2629 21.9148 11.338 22.0219 11.435C22.129 11.5319 22.2148 11.6488 22.2743 11.7786C22.5903 12.2231 22.7336 12.7616 22.6786 13.2986C22.5885 14.1022 22.4365 14.8981 22.2237 15.6797C22.0795 16.2364 21.8172 16.7579 21.4535 17.211C21.0898 17.6642 20.6327 18.0392 20.1112 18.312C19.9662 18.369 19.8462 18.4731 19.7718 18.6065C19.6974 18.7398 19.6732 18.894 19.7035 19.0427C19.781 19.9527 19.8248 20.8628 19.9326 21.7696C20.1078 23.2276 20.3268 24.6824 20.5189 26.1405C20.5896 26.6787 20.6402 27.2234 20.7076 27.8105C21.3457 27.6701 21.993 27.572 22.6449 27.517C23.7871 27.4909 23.6826 27.1092 23.4872 26.3166C23.4252 26.1238 23.3746 25.9278 23.3356 25.7295C23.2615 25.3324 23.2288 24.9292 23.2379 24.5258C23.3803 22.4927 24.1582 20.5496 25.4683 18.9546C25.876 18.4588 26.277 17.9532 26.6543 17.4379C27.9347 15.6993 28.467 13.7846 27.9515 11.6807C27.7277 10.7431 27.4164 9.82713 27.0216 8.94402C25.8794 6.41935 24.1611 4.33829 21.6307 2.99441C19.7546 2.00997 17.6011 1.63599 15.4886 1.92778C13.8349 2.18046 12.2118 2.59353 10.6435 3.16076C6.85648 4.37417 4.35311 6.88579 2.96834 10.4738C2.44497 11.8554 2.09762 13.2936 1.93398 14.7566C1.78457 15.8043 1.89184 16.8713 2.24711 17.8714C2.60239 18.8715 3.19571 19.7767 3.97912 20.5138C5.18869 21.7044 6.64422 22.5459 8.10312 23.4038C9.22544 24.0533 10.3077 24.7656 11.3444 25.537C12.5179 26.4153 13.354 27.6486 13.7197 29.0402C13.7702 29.2294 13.8612 29.4154 13.9522 29.6502L15.9064 29.0957C16.0632 28.2528 15.9698 27.3841 15.6368 26.5906C14.9869 24.8225 14.1844 23.1105 13.2379 21.4728C12.9515 20.9574 12.6853 20.4942 11.9811 20.5105C11.7721 20.4839 11.5725 20.4101 11.3983 20.2952C9.62828 19.4008 8.12134 18.0867 7.01821 16.4756C6.70083 16.0348 6.54109 15.5056 6.56336 14.9686C6.60379 14.2184 6.95082 13.8759 7.72913 13.8009C8.44254 13.7587 9.14554 13.9828 9.69341 14.4272C11.0142 15.3503 11.9441 16.6061 12.847 17.888C13.0795 18.2142 13.2918 18.5665 13.5209 18.9285C13.8395 18.8309 14.1314 18.6654 14.3751 18.4441C14.6189 18.2228 14.8082 17.9514 14.9293 17.6499ZM16.4084 18.5828C16.0402 19.4375 15.3412 20.1189 14.4609 20.4812L14.7979 21.1107C16.0209 23.4755 17.3888 25.7849 17.7527 28.5118L19.8754 27.9443C19.1813 24.8944 18.4838 21.9229 18.2446 18.8894L16.4084 18.5828ZM24.9326 28.8641C24.4104 28.3585 23.9218 28.1824 23.3491 28.3813C22.2439 28.763 21.1388 29.1479 20.0438 29.5621C18.6388 30.0971 17.2541 30.7005 15.839 31.2094C15.0438 31.4932 14.1981 31.6465 13.2278 31.8976L12.9549 32.3967C14.06 32.9708 15.2055 32.9153 16.3006 32.7685C19.2145 32.3709 21.9706 31.2431 24.2958 29.4969C24.5198 29.3019 24.7324 29.095 24.9326 28.8772V28.8641ZM23.4333 32.0933C20.9729 33.7432 18.0632 34.6511 15.0708 34.7028C14.8046 36.0075 15.283 36.5001 16.5431 36.2685C16.5946 36.2563 16.6452 36.241 16.6948 36.2228C18.3221 35.6781 19.9596 35.1529 21.5802 34.5919C22.6988 34.2005 23.1941 33.3067 23.4333 32.1064V32.0933ZM16.7251 37.6776C16.7015 38.3789 16.7251 38.4539 17.3417 38.4474C18.0425 38.4474 18.7433 38.3756 19.4407 38.3006C21.0209 38.1277 22.1732 37.2568 23.1301 36.1021C23.2646 35.9796 23.36 35.8223 23.4048 35.6488C23.4496 35.4753 23.442 35.293 23.3828 35.1236C21.3342 36.3957 19.0162 36.9306 16.7251 37.6907V37.6776ZM11.1557 18.2207C10.3504 17.1639 9.66645 15.9896 8.21093 15.422C8.6961 16.3451 9.85177 17.464 11.1557 18.2207ZM21.031 13.2627C20.4179 14.0835 20.0963 15.0747 20.1146 16.0875C20.8086 15.2361 20.9771 14.2673 21.0378 13.2627H21.031Z"
                                fill="#121621" />
                        </g>
                        <defs>
                            <clipPath id="clip0_222_195">
                                <rect width="30" height="40" fill="white" />
                            </clipPath>
                        </defs>
                    </svg>