<svg width="90" height="88" viewBox="0 0 90 88" fill="none" xmlns="http://www.w3.org/2000/svg">
                            <g clip-path="url(#clip0_222_90)">
                                <path
                                    d="M64.1875 20.202C68.2711 16.4426 71.7835 15.5703 73.86 18.0328C76.8089 21.5606 76.1759 24.7642 71.8298 28.6008L75.4657 38.3274C77.4805 37.8951 79.6497 36.9302 81.7031 37.1386C83.801 37.3932 85.7651 38.3036 87.3152 39.74C89.8086 42.1949 89.6927 46.6876 87.6548 49.2968C85.1305 52.4849 81.6876 52.7165 75.7205 50.1459C74.1766 53.3341 72.5786 56.5145 70.9112 59.9034C74.3927 61.5553 77.1563 63.987 76.0369 68.5878C75.3653 71.3205 73.4586 72.517 70.6951 72.6946C66.8353 72.9416 64.7974 70.8574 63.956 67.5997L49.9528 74.0687C52.7009 79.4723 52.5542 82.8998 49.2657 85.424C46.1084 87.8325 42.3182 87.7399 39.4774 85.1461C36.3896 82.2822 36.3896 78.7467 39.2844 74.1304L25.3893 68.4334C23.4749 69.298 21.0973 70.8574 18.5344 71.3051C17.1526 71.5444 15.1532 70.1626 13.9027 68.9892C11.363 66.5344 12.2198 62.0417 15.7785 57.9504C14.6206 55.3643 13.4627 52.7011 12.4746 50.5473C9.91945 50.9951 7.25622 52.0372 4.7551 51.7207C3.12629 51.5123 0.841308 49.5593 0.455333 47.9922C-0.162227 45.5142 -0.401545 41.9247 0.972526 40.2264C2.47783 38.3505 6.15232 36.9842 8.55308 37.3856C11.5405 37.8874 12.4128 37.0151 13.3623 34.761C14.6592 31.5651 16.3575 28.7475 13.6016 25.0653C12.4669 23.5214 13.3932 20.1788 14.0725 17.8476C14.2887 17.0756 16.9519 16.3037 18.0558 16.7359C20.1092 17.5079 21.8384 19.1213 23.2896 20.1016L39.5006 13.0615C36.5363 8.90065 36.4127 4.88653 39.3616 2.13067C40.732 0.846504 42.5235 0.105924 44.4006 0.0476637C46.2777 -0.0105966 48.1117 0.617432 49.5591 1.81414C52.7009 4.50825 52.8321 8.76169 50.0609 13.3934L64.1875 20.202ZM51.3963 37.2853L65.4689 23.861C64.1676 23.3577 62.9145 22.7377 61.725 22.0084C51.3191 14.3661 38.5665 13.8875 27.2266 20.7964C23.6138 22.9965 23.4826 24.3242 26.6321 27.165C30.0519 30.2528 33.4948 33.3406 36.9608 36.4284C43.3526 32.7848 47.5443 33.0241 51.4349 37.3161C51.6742 37.3547 52.0293 37.3161 52.1528 37.4397C55.6343 41.3766 54.8315 48.6715 50.6089 51.8983C46.0621 55.3412 39.462 54.4148 36.3124 49.9452C33.4871 45.9157 33.8576 41.8089 35.911 37.9877L22.6489 26.3467C17.3765 29.01 16.4733 33.2093 17.8165 38.6207C18.4263 41.1296 17.5617 43.9549 17.7007 46.6181C17.8859 49.9606 17.4151 53.9362 19.0362 56.4759C21.7303 60.6985 25.2658 65.0291 29.5038 67.4994C45.0663 76.6007 61.6015 70.2012 69.2129 56.3524C69.7195 55.2234 69.8071 53.9507 69.46 52.7628C67.5301 46.2244 67.0824 39.8018 69.46 33.1939C69.9 31.9511 68.6494 29.7742 67.6381 28.4387C66.2254 26.5783 64.836 27.798 63.5005 29.0408C61.7415 30.7277 59.8549 32.2762 57.8575 33.6725C55.7733 35.0157 53.5346 36.081 51.3963 37.2853ZM44.3407 51.6126C45.3554 51.6138 46.3603 51.4132 47.2969 51.0225C48.2335 50.6319 49.0831 50.059 49.7963 49.3371C50.5096 48.6153 51.0722 47.7588 51.4516 46.8176C51.8309 45.8764 52.0194 44.8692 52.0061 43.8546C52.0061 39.9948 48.2622 36.2508 44.4488 36.22C42.397 36.2014 40.4213 36.9955 38.9532 38.4289C37.4851 39.8623 36.644 41.8184 36.6134 43.87C36.5979 44.8897 36.787 45.9023 37.1696 46.8477C37.5522 47.7931 38.1206 48.6522 38.841 49.3741C39.5615 50.096 40.4194 50.666 41.3641 51.0505C42.3087 51.4351 43.3209 51.6262 44.3407 51.6126ZM80.9002 38.6748C76.7008 38.8214 75.7359 40.0797 75.8671 45.2055C75.9443 48.3319 78.3451 50.2077 82.0427 50.0765C83.4591 50.0028 84.7919 49.3837 85.7618 48.349C86.7318 47.3143 87.2635 45.9443 87.2457 44.5261C87.2688 41.3997 84.1656 38.5512 80.9002 38.6748ZM11.9034 43.8623C11.9034 39.8327 10.8921 38.5204 7.7734 38.5976C4.19928 38.6902 1.36621 41.199 1.25042 44.3717C1.1269 47.722 3.75925 50.1923 7.42602 50.1691C11.0928 50.1459 11.8879 48.9186 11.9034 43.8623ZM50.2461 7.7813C50.2573 7.0548 50.1252 6.33321 49.8573 5.65782C49.5894 4.98243 49.1909 4.36652 48.6847 3.84527C48.1785 3.32402 47.5746 2.9077 46.9073 2.62011C46.2401 2.33252 45.5227 2.17932 44.7961 2.16925C44.064 2.12434 43.3306 2.23521 42.6444 2.49454C41.9583 2.75388 41.335 3.15576 40.8155 3.67372C40.2961 4.19167 39.8924 4.8139 39.6312 5.49933C39.3699 6.18475 39.257 6.9178 39.2999 7.65008C39.3418 9.19074 39.9498 10.6619 41.0079 11.7826C42.0659 12.9033 43.4997 13.5949 45.0354 13.7253C47.8299 13.8334 50.1612 11.1779 50.2461 7.7813ZM38.9602 79.7116C39.0473 81.1813 39.6637 82.5696 40.6954 83.6198C41.7272 84.67 43.1044 85.3109 44.5722 85.424C47.5134 85.424 49.9759 82.5447 49.9142 79.1635C49.9327 78.4618 49.8033 77.764 49.5344 77.1155C49.2655 76.467 48.8632 75.8824 48.3535 75.3997C47.8438 74.9169 47.2382 74.5469 46.5761 74.3136C45.914 74.0802 45.2102 73.9889 44.5105 74.0455C43.7733 74.0505 43.0443 74.2014 42.3656 74.4893C41.6869 74.7773 41.0719 75.1967 40.556 75.7234C40.0401 76.25 39.6335 76.8736 39.3597 77.5581C39.0858 78.2425 38.95 78.9745 38.9602 79.7116ZM69.1512 70.9037C73.6748 71.0966 74.7169 69.1745 74.7092 66.6039C74.7092 63.8403 73.0186 62.5126 70.3168 62.4277C69.7395 62.3738 69.1576 62.4532 68.6157 62.6596C68.0739 62.866 67.5866 63.1939 67.1915 63.6181C66.7963 64.0424 66.5037 64.5517 66.3362 65.1068C66.1687 65.6619 66.1309 66.248 66.2255 66.8201C66.4416 68.5415 68.5336 70.0622 69.1512 70.9037ZM70.8109 33.8501C69.3442 40.7976 69.074 46.5718 71.7912 53.2724C74.192 46.3248 74.5548 40.5737 70.8417 33.8809L70.8109 33.8501ZM24.27 66.519C21.7071 64.3884 20.2327 62.7364 18.38 61.8873C17.8705 61.648 15.161 64.4347 15.3462 64.7512C16.2602 66.5122 17.634 67.9927 19.3218 69.0356C20.0397 69.4138 21.7997 67.8313 24.27 66.519ZM74.1302 23.4596C74.1302 22.9424 74.1302 22.4175 74.1302 21.9157C72.7176 21.0357 71.3126 19.5381 69.8691 19.4995C68.8347 19.4995 66.6655 21.8771 66.8816 22.348C67.5609 23.8379 68.9427 25.5285 70.4017 25.9608C71.3281 26.2078 72.872 24.3551 74.1302 23.4519V23.4596ZM18.133 27.3734C19.4376 25.1425 20.5028 23.7143 21.0278 22.1087C21.1513 21.7304 18.9204 19.9935 18.6347 20.1788C17.24 21.0163 16.0962 22.2135 15.3231 23.6449C15.1147 24.1776 16.728 25.6057 18.133 27.3657V27.3734ZM14.0416 50.3003L15.7399 50.1846L15.1147 38.9372L14.0262 39.0067L14.0416 50.3003Z"
                                    fill="white" />
                            </g>
                            <defs>
                                <clipPath id="clip0_222_90">
                                    <rect width="89.1834" height="87.13" fill="white" />
                                </clipPath>
                            </defs>
                        </svg>