<svg width="50" height="65" viewBox="0 0 50 65" fill="none" xmlns="http://www.w3.org/2000/svg">
<g clip-path="url(#clip0_222_289)">
<g filter="url(#filter0_i_222_289)">
<path d="M31.6708 0.132219C27.6968 -1.12687 21.7806 0.645011 19.3192 1.68834C17.0841 2.75556 11.966 5.36623 9.37443 7.27115C6.13496 9.65229 3.63617 15.0455 1.82647 21.0006C0.0167693 26.9558 5.99256 35.0623 7.47362 36.4764C8.95467 37.8905 16.7711 41.512 19.6097 43.0698C21.8806 44.3161 23.2233 47.7365 23.6108 49.2909C24.1319 49.5323 25.4024 49.8298 26.3156 49.0883C27.4571 48.1615 30.7378 47.7405 32.1776 47.1944C33.6174 46.6483 36.4045 45.756 37.1655 45.1381C37.9265 44.5201 39.284 44.6639 40.9296 44.6984C42.246 44.726 41.1214 43.0889 40.3946 42.2669C41.135 40.6689 42.4471 36.8124 41.7722 34.1705C40.9287 30.8682 47.0581 27.8849 48.909 23.89C50.76 19.895 47.3245 12.9654 44.9177 8.93873C42.5109 4.91206 36.6382 1.70608 31.6708 0.132219Z" fill="#92FFFE" fill-opacity="0.6"/>
</g>
<path d="M23.467 55.7463C22.4156 55.3318 21.4239 54.9855 20.4755 54.5553C18.8062 53.7998 18.5407 52.5511 19.4403 51.2866C19.901 50.636 20.4917 49.807 20.4213 49.1145C20.3214 47.3487 19.576 45.675 18.3185 44.3924C17.3617 43.4758 16.3225 42.6435 15.2131 41.9055C13.7173 40.9191 12.124 40.0691 10.5632 39.1772C8.44194 37.991 6.51496 36.5056 4.84559 34.77C3.4267 33.302 2.33847 31.5645 1.64995 29.6677C0.961437 27.771 0.687658 25.7565 0.845984 23.7519C1.01777 20.5684 1.68654 17.4285 2.82953 14.4389C3.78061 11.8547 5.28665 9.49504 7.24837 7.51538C9.21009 5.53572 11.5829 3.98106 14.2105 2.95389C17.4528 1.58406 20.8766 0.658725 24.3829 0.204614C31.5312 -0.671587 37.6878 1.21724 42.5545 6.58987C46.3786 10.6771 48.6596 15.8981 49.0254 21.4013C49.1409 23.3675 48.7693 25.3319 47.9415 27.1307C47.1941 28.865 46.2059 30.4925 45.0042 31.9682C44.8199 32.1886 44.6573 32.4299 44.4622 32.645C42.4963 34.7503 41.2888 37.4161 41.0208 40.2423C40.8716 41.0026 40.678 41.7541 40.4409 42.4931C40.3623 42.878 40.3062 43.2669 40.2729 43.6579C41.023 44.2035 41.7212 44.8128 42.3594 45.4785C42.7215 45.9158 42.9069 46.4658 42.881 47.0257C42.8551 47.5857 42.6196 48.1174 42.2185 48.5216C41.6766 49.1827 41.0208 49.7755 40.3705 50.4524C40.5611 50.9436 40.6277 51.4718 40.5645 51.993C40.5013 52.5141 40.3103 53.0131 40.0074 53.4483C39.7852 53.8365 39.6714 54.2825 39.4654 54.6865C39.3768 54.8455 39.335 55.025 39.3446 55.2054C39.3541 55.3858 39.4147 55.5602 39.5196 55.7096C39.7597 56.1441 39.8894 56.6278 39.8978 57.1205C39.9063 57.6132 39.7934 58.1008 39.5684 58.5428C39.1233 59.5831 38.4692 60.5275 37.644 61.321C36.8187 62.1145 35.8389 62.7414 34.7613 63.1652C32.9728 63.9522 31.0381 64.1568 29.1087 64.3299C28.5184 64.3557 27.9296 64.2536 27.3853 64.0309C26.1985 63.5849 25.4126 62.7822 25.456 61.4495C25.4916 61.1303 25.4203 60.8085 25.2524 60.5317C25.0845 60.2548 24.8291 60.0376 24.5238 59.9122C23.5917 59.4505 23.3803 58.5323 23.3261 57.6141C23.3392 56.9896 23.3862 56.3661 23.467 55.7463ZM24.8327 28.39C24.513 28.0122 24.2474 27.7026 23.9873 27.3878C22.2943 25.4443 21.1415 23.1148 20.638 20.6196C20.5487 20.1408 20.5487 19.6503 20.638 19.1715C20.6821 18.9004 20.7932 18.6437 20.962 18.4233C21.1308 18.2029 21.3521 18.0253 21.6072 17.9057C21.8623 17.7861 22.1435 17.728 22.4268 17.7365C22.71 17.7449 22.987 17.8196 23.234 17.9542C23.5753 18.1161 23.8808 18.3406 24.1336 18.6153C24.6927 19.2229 25.1967 19.8759 25.6402 20.5671C26.7727 22.3447 27.4543 24.3566 27.6292 26.4382C27.6292 26.8369 27.6292 27.2986 28.1712 27.4246C28.8865 27.5977 29.6127 27.8758 30.339 27.3826C30.339 27.1937 30.339 27.031 30.3823 26.8579C30.5681 24.6619 31.0584 22.5 31.8402 20.4307C32.0373 19.8901 32.3588 19.3999 32.7804 18.9973C33.2019 18.5946 33.7125 18.29 34.2735 18.1064C34.4856 18.0065 34.7163 17.9489 34.9519 17.9372C35.1874 17.9255 35.423 17.9598 35.6445 18.0381C35.8661 18.1165 36.069 18.2372 36.2413 18.3932C36.4136 18.5492 36.5517 18.7371 36.6473 18.9459C37.1557 19.6609 37.3861 20.5271 37.2976 21.3908C37.1528 22.6834 36.9082 23.9637 36.566 25.2209C36.334 26.1163 35.9121 26.9551 35.3271 27.6841C34.7421 28.413 34.0068 29.0161 33.1679 29.455C32.9347 29.5467 32.7416 29.7142 32.622 29.9286C32.5023 30.1431 32.4635 30.3911 32.5122 30.6303C32.6368 32.0941 32.7073 33.558 32.8807 35.0166C33.1625 37.3618 33.5148 39.7019 33.8237 42.0471C33.9375 42.9128 34.0188 43.7891 34.1272 44.7335C35.1536 44.5076 36.1948 44.3498 37.2434 44.2613C39.0806 44.2193 38.9126 43.6054 38.5983 42.3305C38.4986 42.0204 38.4172 41.7051 38.3544 41.3861C38.2352 40.7474 38.1826 40.0988 38.1973 39.45C38.4264 36.1797 39.6777 33.0542 41.785 30.4886C42.4407 29.6911 43.0857 28.8779 43.6926 28.0489C45.752 25.2524 46.6083 22.1726 45.7792 18.7885C45.4192 17.2803 44.9185 15.807 44.2834 14.3865C42.4461 10.3255 39.6822 6.97812 35.6121 4.81648C32.5944 3.23298 29.1305 2.63144 25.7324 3.10079C23.0725 3.50722 20.4616 4.17165 17.9391 5.08405C11.8476 7.03583 7.82089 11.0758 5.59347 16.8472C4.75162 19.0695 4.1929 21.3829 3.92969 23.7361C3.68936 25.4213 3.8619 27.1376 4.43337 28.7463C5.00483 30.355 5.95919 31.8109 7.21933 32.9966C9.16493 34.9116 11.5062 36.2653 13.8528 37.6452C15.6581 38.6899 17.3989 39.8356 19.0664 41.0765C20.954 42.4893 22.299 44.4729 22.8871 46.7115C22.9684 47.0158 23.1148 47.3148 23.2611 47.6926L26.4044 46.8007C26.6568 45.4449 26.5064 44.0475 25.9708 42.7712C24.9254 39.9272 23.6346 37.1735 22.1121 34.5391C21.6515 33.7101 21.2233 32.9651 20.0907 32.9913C19.7545 32.9485 19.4333 32.8299 19.1531 32.645C16.3061 31.2064 13.8821 29.0926 12.1077 26.5011C11.5972 25.792 11.3403 24.9408 11.3761 24.0772C11.4411 22.8704 11.9993 22.3195 13.2512 22.1988C14.3988 22.1309 15.5296 22.4914 16.4108 23.2062C18.5353 24.691 20.0311 26.711 21.4835 28.773C21.8574 29.2976 22.1989 29.8643 22.5674 30.4467C23.0798 30.2897 23.5494 30.0234 23.9414 29.6675C24.3335 29.3115 24.6381 28.875 24.8327 28.39ZM27.2119 29.8905C26.6197 31.2653 25.4954 32.3613 24.0794 32.9441L24.6214 33.9567C26.5887 37.7606 28.789 41.4752 29.3743 45.8615L32.7886 44.9486C31.6722 40.0429 30.5503 35.2631 30.1655 30.3837L27.2119 29.8905ZM40.9233 46.4282C40.0832 45.6149 39.2974 45.3316 38.3761 45.6516C36.5985 46.2655 34.8209 46.8846 33.0596 47.5509C30.7996 48.4114 28.5722 49.382 26.296 50.2005C25.017 50.657 23.6567 50.9036 22.0959 51.3076L21.6569 52.1103C23.4345 53.0338 25.2771 52.9446 27.0385 52.7085C31.7257 52.0689 36.1589 50.2548 39.899 47.446C40.2593 47.1324 40.6012 46.7996 40.9233 46.4491V46.4282ZM38.5116 51.6224C34.554 54.2762 29.8737 55.7366 25.0604 55.8198C24.6322 57.9184 25.4018 58.7107 27.4287 58.3382C27.5114 58.3185 27.5929 58.294 27.6726 58.2647C30.2902 57.3885 32.9241 56.5438 35.5309 55.6414C37.3301 55.0118 38.1268 53.5742 38.5116 51.6434V51.6224ZM27.7213 60.6048C27.6834 61.7328 27.7213 61.8535 28.7131 61.843C29.8404 61.843 30.9676 61.7276 32.0895 61.6069C34.6312 61.3288 36.4847 59.9279 38.0238 58.0706C38.2403 57.8736 38.3937 57.6204 38.4657 57.3414C38.5378 57.0623 38.5255 56.7691 38.4303 56.4966C35.1352 58.5428 31.4066 59.4033 27.7213 60.6258V60.6048ZM18.7629 29.3081C17.4676 27.6082 16.3675 25.7194 14.0262 24.8065C14.8066 26.2913 16.6655 28.0909 18.7629 29.3081ZM34.6475 21.3331C33.6612 22.6534 33.144 24.2477 33.1734 25.8768C34.2898 24.5074 34.5608 22.9491 34.6583 21.3331H34.6475Z" fill="#92FFFE"/>
</g>
<defs>
<filter id="filter0_i_222_289" x="1.4884" y="-0.302734" width="88.1602" height="49.8618" filterUnits="userSpaceOnUse" color-interpolation-filters="sRGB">
<feFlood flood-opacity="0" result="BackgroundImageFix"/>
<feBlend mode="normal" in="SourceGraphic" in2="BackgroundImageFix" result="shape"/>
<feColorMatrix in="SourceAlpha" type="matrix" values="0 0 0 0 0 0 0 0 0 0 0 0 0 0 0 0 0 0 127 0" result="hardAlpha"/>
<feOffset dx="40.2128"/>
<feGaussianBlur stdDeviation="120.638"/>
<feComposite in2="hardAlpha" operator="arithmetic" k2="-1" k3="1"/>
<feColorMatrix type="matrix" values="0 0 0 0 0.572549 0 0 0 0 1 0 0 0 0 0.996078 0 0 0 0.3 0"/>
<feBlend mode="normal" in2="shape" result="effect1_innerShadow_222_289"/>
</filter>
<clipPath id="clip0_222_289">
<rect width="48.2553" height="64.3404" fill="white" transform="translate(0.819092)"/>
</clipPath>
</defs>
</svg>
