<svg width="88" height="85" viewBox="0 0 88 85" fill="none" xmlns="http://www.w3.org/2000/svg">
                            <g clip-path="url(#clip0_222_116)">
                                <path
                                    d="M43.6992 70.9804C43.2478 66.0071 42.9826 61.6286 42.3592 57.2931C42.2015 56.1895 41.0621 54.9784 40.0445 54.2833C31.5813 48.493 29.1734 40.0083 33.8888 32.2761C38.0308 25.4826 47.311 23.1321 54.0543 27.1666C61.8296 31.8174 64.1514 40.0299 59.7872 47.54C56.3403 53.5237 51.5462 56.0533 45.2758 55.2149V70.7081C53.3664 69.9915 59.866 66.9746 65.513 60.9908L59.0634 55.8599L58.5045 52.6136C63.3918 51.5888 63.399 51.6533 64.0511 56.1967C64.1801 57.0996 65.1475 57.8735 65.7351 58.7263C71.8407 53.1941 73.7755 41.6207 68.2791 38.3243H82.4752L82.5541 39.1771L74.4563 39.779C73.8615 43.6057 73.6322 47.4325 72.5931 51.0227C71.5899 54.4768 69.7267 57.6872 67.971 61.6931L74.2198 67.297L73.5605 68.0136C71.9625 66.5804 70.4361 65.0755 68.7162 63.8358C68.0426 63.3485 66.4732 63.0475 66.0648 63.4416C60.3318 68.9667 53.5025 72.2417 45.4836 72.8293V82.1954H58.3827C57.1931 84.5818 49.2816 85.2339 41.9005 84.1661C42.4738 80.5831 43.0543 76.9355 43.6634 73.1374C34.5696 72.557 27.0881 70.2208 22.0718 62.9113L13.5584 70.6149L12.9636 70.1277L20.6386 61.9941C19.7643 60.6755 18.8685 59.2423 17.9656 57.8091L18.718 57.0924C19.7428 58.0097 20.7676 58.927 22.3011 60.31L31.3949 49.654C32.3552 50.5569 33.3298 51.4742 35.0354 53.0937L29.8829 55.3224H30.363L22.122 61.2201C27.7259 68.7374 35.1213 69.9915 43.6992 70.9804ZM36.0099 42.3158C36.0529 43.1328 36.0816 43.9067 36.1389 44.6807C36.6907 52.1836 45.0035 56.3758 50.9872 52.5276C53.696 50.7719 55.9103 48.2279 58.2895 45.9921C58.6415 45.5204 58.8861 44.9774 59.0061 44.4012C60.9768 38.9693 59.3859 34.0819 54.4198 30.2982C49.9409 26.8871 45.8204 26.923 40.8041 30.3985C44.5162 31.237 46.1357 33.265 45.4191 36.1315C44.4302 40.2377 39.679 43.4123 36.0099 42.3087V42.3158Z"
                                    fill="white" />
                                <path
                                    d="M19.2047 19.7213L12.8627 14.5473L10.2399 16.5108C8.4412 14.2248 11.1715 9.68866 16.0445 6.47823C16.8328 8.16944 16.8328 8.16944 13.3213 12.7486C14.6112 13.7734 15.98 14.7121 17.1696 15.8444C18.2244 16.9315 19.2196 18.075 20.1507 19.2698C24.0706 16.8691 27.3885 14.2965 31.1292 12.7128C34.8699 11.1291 38.9117 10.5988 43.111 9.53818V2.12837H31.466C37.4928 -0.487273 52.1619 -0.781084 55.444 1.74857H45.6478V9.83198C53.7814 10.2619 60.5176 13.9238 66.4297 19.6424L70.371 15.9447L71.0446 16.5682L67.7769 21.1903C71.102 25.9271 73.6101 30.9435 72.5997 37.049L67.1534 22.5734L58.8837 29.5102L58.5039 29.1233L65.9639 22.5877C60.0661 15.5649 53.4804 12.9063 45.4687 12.1896C45.2752 15.7727 45.0817 19.2985 44.8882 22.8314H43.9996V12.5838C28.4204 10.2763 16.6536 22.7955 15.7578 38.3389L20.9461 39.2562L20.9031 39.9226L15.464 40.7897C15.6503 43.821 15.8295 46.6516 16.0086 49.4823L15.3565 49.6113L13.4217 40.5246H7.4881C7.20145 42.0725 6.92198 43.6132 6.47767 46.0139C4.44249 43.5272 6.82165 39.1559 1.69069 40.4529V47.6191L0.608599 47.6764C0.357783 44.8458 -0.00769043 42.0223 -0.00769043 39.1989C-0.00769043 38.8477 1.9845 38.2028 3.04509 38.2171C6.48484 38.2171 9.92459 38.5037 12.8985 38.6542C15.0484 32.2262 17.0549 26.1565 19.2047 19.7213Z"
                                    fill="white" />
                                <path
                                    d="M82.6542 14.6118L74.9363 7.44562C76.4698 6.45669 77.4516 5.61825 78.591 5.15962C79.2288 4.90164 80.1246 5.25995 80.8985 5.33877C80.7165 5.94385 80.6153 6.57036 80.5975 7.20198C80.645 8.19538 80.8885 9.16957 81.3141 10.0684C82.0789 11.1748 82.932 12.2173 83.8653 13.1857L82.6542 14.6118Z"
                                    fill="white" />
                                <path
                                    d="M84.6393 33.0646C87.1546 33.3369 87.7279 36.3968 86.5598 44.1434H77.6738L77.5663 43.0614C78.7129 42.8894 79.8809 42.488 80.9989 42.5955C84.4601 42.9395 85.8074 41.449 85.3344 38.1024C85.1337 36.4183 84.8686 34.7343 84.6393 33.0646Z"
                                    fill="white" />
                                <path
                                    d="M78.2469 67.0751C78.2469 67.5695 78.6052 68.7448 78.1681 69.3897C77.1906 70.7241 76.0467 71.9282 74.7642 72.9728C74.5027 73.1764 74.2032 73.3256 73.8832 73.4117C73.5633 73.4979 73.2293 73.5192 72.901 73.4744C72.5212 73.4099 71.9121 72.4855 72.0267 72.1917C72.2417 71.6328 72.8795 71.2099 73.3954 70.8015C74.8645 69.6477 76.3622 68.5585 78.2469 67.0751Z"
                                    fill="white" />
                            </g>
                            <defs>
                                <clipPath id="clip0_222_116">
                                    <rect width="87.1403" height="84.6967" fill="white" />
                                </clipPath>
                            </defs>
                        </svg>