  <svg width="86" height="53" viewBox="0 0 86 53" fill="none" xmlns="http://www.w3.org/2000/svg">
                            <g clip-path="url(#clip0_222_97)">
                                <path
                                    d="M33.6597 43.7818C33.6597 38.8129 37.7394 34.6299 42.5423 34.6299C47.1527 34.6299 51.5708 39.1126 51.5841 43.7885C51.6305 44.9985 51.4332 46.2054 51.004 47.337C50.5749 48.4686 49.9227 49.5016 49.0865 50.3741C48.2503 51.2466 47.2473 51.9408 46.1377 52.4149C45.028 52.889 43.8345 53.1334 42.6285 53.1334C41.4225 53.1334 40.229 52.889 39.1193 52.4149C38.0096 51.9408 37.0067 51.2466 36.1705 50.3741C35.3343 49.5016 34.6822 48.4686 34.253 47.337C33.8238 46.2054 33.6265 44.9985 33.6729 43.7885L33.6597 43.7818ZM49.5807 44.4479C49.7797 40.7845 46.5292 36.9811 42.9469 36.6681C39.3647 36.355 35.8554 39.7054 35.7161 43.7285C35.5768 47.7516 38.4161 50.7823 42.6418 50.9488C44.4158 50.9941 46.1364 50.337 47.4322 49.1194C48.7279 47.9019 49.4948 46.2216 49.5674 44.4412L49.5807 44.4479Z"
                                    fill="white" />
                                <path
                                    d="M68.7988 30.8596C68.7988 26.0704 72.255 22.6268 77.0711 22.6468C81.7147 22.6468 85.9338 26.6433 86.0001 31.0061C86.0764 32.1939 85.9081 33.3847 85.5055 34.5043C85.1029 35.6238 84.4748 36.6479 83.6603 37.5128C82.8458 38.3776 81.8625 39.0646 80.7718 39.5308C79.6811 39.997 78.5064 40.2324 77.321 40.2223C76.1356 40.2122 74.965 39.9568 73.8823 39.4721C72.7996 38.9874 71.8281 38.2838 71.0284 37.4052C70.2286 36.5266 69.6179 35.4918 69.2343 34.3656C68.8507 33.2394 68.7024 32.0459 68.7988 30.8596ZM84.0166 31.4191C84.083 28.0154 80.985 24.7583 77.6482 24.665C73.7741 24.5984 71.0145 27.0962 70.842 30.7996C70.6695 34.503 74.0196 37.8667 77.688 37.9467C80.7329 37.9467 83.9702 34.6629 84.0166 31.4191Z"
                                    fill="white" />
                                <path
                                    d="M48.5657 27.0562C44.0414 30.1468 39.5703 30.5131 35.1787 26.7764L35.2716 26.863C34.7276 24.7582 33.7923 22.6734 33.7193 20.5553C33.5667 16.1125 37.6996 12.4091 42.0646 12.6955C47.1261 13.0285 50.841 17.2648 50.0848 22.0206C49.6992 23.7379 49.1915 25.4251 48.5657 27.0695V27.0562ZM35.6564 20.835C35.6564 24.8315 38.3497 27.8022 41.9717 27.7623C45.1028 27.729 48.1676 24.5318 48.2074 21.2546C48.2406 18.1374 45.0564 14.787 41.9717 14.6938C41.1549 14.6788 40.3433 14.8259 39.5833 15.1268C38.8233 15.4276 38.13 15.8762 37.5432 16.4469C36.9564 17.0175 36.4876 17.6989 36.1638 18.452C35.84 19.205 35.6676 20.0149 35.6564 20.835Z"
                                    fill="white" />
                                <path
                                    d="M16.465 31.2861C16.4252 35.9953 12.8098 39.4123 7.94728 39.3257C5.78938 39.251 3.74676 38.3293 2.25828 36.7588C0.769806 35.1883 -0.0457733 33.0942 -0.0132219 30.9265C-0.0264568 29.8167 0.18285 28.7156 0.602235 27.6887C1.02162 26.6618 1.64251 25.7301 2.42793 24.9492C3.21336 24.1682 4.14725 23.554 5.17402 23.1429C6.20078 22.7319 7.29943 22.5325 8.40453 22.5566C9.50963 22.5808 10.5986 22.8279 11.6066 23.2834C12.6146 23.7389 13.521 24.3934 14.2718 25.2079C15.0227 26.0224 15.6026 26.9803 15.9771 28.0245C16.3516 29.0688 16.5131 30.178 16.4518 31.2861H16.465ZM8.39176 37.3808C9.18799 37.3799 9.97625 37.2216 10.7115 36.9148C11.4468 36.6081 12.1148 36.1589 12.6772 35.5929C13.2396 35.027 13.6855 34.3554 13.9894 33.6164C14.2933 32.8774 14.4492 32.0856 14.4484 31.2861C14.5213 27.6427 11.9342 24.7319 8.55096 24.6253C5.0616 24.5321 1.91721 27.6693 2.01009 31.113C2.01696 31.9447 2.18794 32.7668 2.51314 33.5318C2.83834 34.2967 3.31131 34.9894 3.90472 35.5698C4.49813 36.1501 5.20019 36.6066 5.97036 36.9129C6.74052 37.2191 7.56352 37.3691 8.39176 37.3541V37.3808Z"
                                    fill="white" />
                                <path
                                    d="M31.4771 12.4625C31.2582 12.5024 30.9929 12.6423 30.8668 12.569C27.2581 10.3044 23.6626 8.0197 20.0206 5.71506C19.3573 6.22129 18.6939 6.80745 18.0305 7.29369C16.1266 8.58589 14.1365 8.24619 13.3139 6.31455C13.0231 5.52026 12.8989 4.67418 12.9491 3.82942C12.9993 2.98465 13.2229 2.15945 13.6058 1.40555C14.7269 -0.432836 17.46 -0.419532 18.402 1.17906C21.4867 6.40113 27.2514 8.11296 31.3246 11.9629C31.4174 12.0628 31.424 12.2893 31.4771 12.4625ZM16.0404 7.37362C17.188 5.78835 18.1897 4.98239 18.2759 4.04322C18.3357 3.43708 17.0819 2.14489 16.4517 2.17153C15.9921 2.28601 15.5687 2.51512 15.2208 2.83765C14.8729 3.16019 14.6118 3.56569 14.4615 4.01657C14.3156 4.76258 15.1913 5.6951 16.0404 7.37362Z"
                                    fill="white" />
                                <path
                                    d="M67.1334 8.9388C66.5905 8.60672 66.009 8.34274 65.402 8.15281C63.3787 7.73318 61.8729 6.90724 61.9657 4.50935C62.0586 2.23802 63.2394 0.386315 65.3821 0.366333C66.7885 0.366333 68.6128 1.56529 69.5481 2.77756C70.981 4.64259 69.9926 6.5076 68.301 7.92635C67.8963 8.26605 67.4983 8.59244 67.1003 8.95878L67.1334 8.9388ZM69.3624 4.18298C67.6973 3.13057 66.7089 2.0382 66.0455 2.18474C65.1301 2.39789 64.4401 3.58351 63.6574 4.3495C64.4799 5.09551 65.2229 6.27448 66.145 6.441C66.8217 6.58088 67.7438 5.38859 69.3757 4.18298H69.3624Z"
                                    fill="white" />
                                <path d="M31.4306 40.7442L17.0155 35.3489L17.4533 34.21L31.822 39.7518L31.4306 40.7442Z"
                                    fill="white" />
                                <path
                                    d="M48.5658 27.0761C50.483 26.843 52.3935 26.45 54.3106 26.4101C58.9646 26.2466 63.6241 26.4694 68.2415 27.0761H48.5724H48.5658Z"
                                    fill="white" />
                                <path
                                    d="M67.1003 8.95927C67.6841 9.05918 68.6593 8.95926 68.7986 9.28564C70.6771 13.1634 72.1511 17.2259 73.1968 21.4083C71.1801 17.2519 69.1612 13.0934 67.1401 8.93262L67.1003 8.95927Z"
                                    fill="white" />
                                <path d="M68.1353 34.956L55.6904 39.472L55.4052 38.7193L67.7837 33.9502L68.1353 34.956Z"
                                    fill="white" />
                                <path
                                    d="M48.1876 13.9678L58.0985 7.24036L58.5429 7.90644L48.8112 14.887L48.1876 13.9678Z"
                                    fill="white" />
                                <path
                                    d="M35.1786 26.7765C33.1884 26.983 31.1651 27.316 29.1484 27.3626C25.1124 27.5077 21.0712 27.3362 17.0618 26.8498H35.2648L35.1786 26.7765Z"
                                    fill="white" />
                                <path
                                    d="M10.1896 20.5819C11.4588 16.8918 12.7303 13.1995 14.004 9.505L14.8465 9.81142C13.5197 13.4793 12.1775 17.145 10.8198 20.8084L10.1896 20.5819Z"
                                    fill="white" />
                            </g>
                            <defs>
                                <clipPath id="clip0_222_97">
                                    <rect width="86" height="53" fill="white" />
                                </clipPath>
                            </defs>
                        </svg>