 <svg width="60" height="55" viewBox="0 0 60 55" fill="none" xmlns="http://www.w3.org/2000/svg">
                            <g clip-path="url(#clip0_222_162)">
                                <path
                                    d="M13.1069 23.0552C10.0454 23.7024 7.84473 24.6992 5.79942 24.4403C1.72821 23.9354 -0.53071 20.3238 0.207156 16.4985C0.977386 12.492 4.44019 9.90302 8.31076 10.4402C11.8448 10.9321 14.8933 14.6991 13.9677 18.4467C13.3205 21.1522 14.259 22.5827 15.8383 24.272C17.5028 26.1188 18.9452 28.1543 20.1361 30.3367L13.1069 23.0552ZM1.81237 17.6053C1.81237 20.7121 3.81237 22.6862 7.02273 22.7121C7.74352 22.747 8.46396 22.6363 9.14112 22.3869C9.81828 22.1375 10.4383 21.7544 10.9643 21.2604C11.4903 20.7664 11.9116 20.1716 12.203 19.5114C12.4943 18.8512 12.6499 18.1391 12.6603 17.4176C12.7186 14.6215 10.2331 11.8254 7.63115 11.7542C6.85938 11.7363 6.09204 11.8756 5.37585 12.1638C4.65965 12.4519 4.00962 12.8828 3.46526 13.4302C2.9209 13.9775 2.49363 14.63 2.20947 15.3478C1.92531 16.0656 1.7902 16.8337 1.81237 17.6053Z"
                                    fill="white" />
                                <path
                                    d="M35.1587 51.2818C32.5309 54.2721 29.7413 55.2559 26.6992 54.0844C23.8837 52.997 22.1684 50.9646 21.8383 47.8708C21.4953 44.4921 22.9451 42.0455 25.8642 40.4986C28.7833 38.9516 31.6312 40.0261 33.929 41.7931C36.2267 43.5601 37.3141 45.9419 36.4015 48.9128C36.2138 49.5212 36.1038 50.1491 35.9614 50.7704L35.1587 51.2818ZM29.1846 52.5763C32.6733 52.5763 33.8966 50.3627 33.929 46.8804C33.929 44.4316 31.6328 42.4708 29.1846 42.4316C26.7364 42.3925 24.1846 43.5471 24.1328 46.8804C23.6328 48.9128 25.6765 52.5439 29.1846 52.5633V52.5763Z"
                                    fill="white" />
                                <path
                                    d="M45.4888 21.7929C45.3594 20.6667 45.1846 19.5405 45.1199 18.4143C44.9516 15.5276 45.7671 13.1004 48.5827 11.7994C51.3982 10.4984 54.285 10.6796 56.6992 12.725C58.9128 14.602 59.6119 17.1004 58.8157 19.9871C58.4921 21.1522 58.8157 23.0486 58.1296 23.4434C56.7381 24.2719 54.8934 24.3431 53.217 24.6927C50.0196 25.3399 47.6571 23.7477 45.45 21.7671L45.4888 21.7929ZM47.0487 17.8318C47.0487 21.068 49.0422 23.3205 51.9484 23.3464C55.3917 23.3464 57.4371 21.4046 57.4371 18.1101C57.4371 14.9385 55.3982 12.8609 52.2591 12.8803C48.7833 12.9062 47.0617 14.5308 47.0487 17.8318Z"
                                    fill="white" />
                                <path
                                    d="M13.5339 7.59877C14.9126 6.87385 16.2459 6.03243 17.6828 5.44343C19.9482 4.51786 22.2136 4.14892 23.6634 1.45636C24.9579 -0.970836 28.5307 -0.135883 30.466 2.32367C31.2381 3.18196 32.2363 3.80553 33.3463 4.12303C36.356 5.07449 39.4305 5.83177 42.4855 6.66673C42.4143 6.93857 42.3496 7.21043 42.2848 7.48875L31.4693 5.21689C29.8706 7.35929 28.6473 9.89005 25.0421 8.92565L28.8285 6.4855L24.2977 5.54051L28.1489 3.29455C26.8544 1.24276 24.4013 1.3528 23.3786 3.90297C22.6602 5.7088 21.6375 5.89003 20.0518 6.12952C17.8996 6.56198 15.7751 7.12176 13.6893 7.80589L13.5339 7.59877Z"
                                    fill="white" />
                                <path
                                    d="M0.0775731 22.6926C0.511232 32.2719 5.46269 38.8739 13.7734 43.3723C5.64392 43.2105 -0.815634 33.4176 0.0775731 22.6926Z"
                                    fill="white" />
                                <path
                                    d="M28.1943 38.8739L26.136 32.9645C28.6862 33.5405 30.5244 33.6117 31.9289 34.4596C32.3949 34.7315 31.7606 36.8868 31.5924 38.6021L29.2428 34.0325C28.9386 35.4305 28.6279 36.8415 28.1943 38.8739Z"
                                    fill="white" />
                                <path
                                    d="M25.3917 25.1263C25.2299 26.1943 25.437 27.7153 24.8157 28.2331C24.3258 28.577 23.7649 28.8061 23.1744 28.9036C22.5839 29.0011 21.979 28.9644 21.4046 28.7962C20.7574 28.5179 20.6215 26.8545 20.259 25.8189L21.1781 25.4953L22.2655 28.4856L23.1199 28.6992C23.5514 27.5169 23.9829 26.3324 24.4144 25.1457L25.3917 25.1263Z"
                                    fill="white" />
                                <path
                                    d="M45.4502 21.7671C45.2625 22.505 45.3208 23.4952 44.8547 23.9289C42.201 26.3884 39.4243 28.7121 36.6929 31.081L36.1362 30.4985C39.256 27.5988 42.3757 24.6991 45.4955 21.7994L45.4502 21.7671Z"
                                    fill="white" />
                            </g>
                            <defs>
                                <clipPath id="clip0_222_162">
                                    <rect width="59.1329" height="54.5633" fill="white" />
                                </clipPath>
                            </defs>
                        </svg>