<svg width="148" height="164" viewBox="0 0 148 164" fill="none"
                            xmlns="http://www.w3.org/2000/svg">
                            <path
                                d="M53.1676 115.705C48.8511 117.909 48.8511 117.909 45.5795 114.316C45.047 113.731 44.5359 113.129 44.0082 112.541C42.0902 110.403 40.1736 108.678 37.0609 107.894C30.6466 106.272 26.4754 99.7453 26.3575 92.5037C26.267 87.2384 30.7185 80.9725 35.9529 78.9947C42.0836 76.6732 49.7452 78.5456 53.8349 83.4471C58.0983 88.5597 58.7022 94.1503 56.007 100.233C55.6154 101.266 55.5109 102.386 55.7047 103.474C55.9478 105.57 56.4012 107.636 57.058 109.641C58.1318 112.588 57.2718 114.292 54.3359 115.12C53.9298 115.28 53.5389 115.476 53.1676 115.705ZM49.3472 115.258C50.8572 114.487 52.0764 113.732 53.3861 113.225C55.0595 112.575 55.3229 111.637 54.8211 109.951C54.109 107.412 53.5371 104.836 53.1079 102.235C52.9723 101.413 53.1177 100.57 53.5204 99.842C55.8617 96.0325 55.8434 92.1631 54.078 88.1669C51.6794 82.7315 45.4956 79.4389 39.4981 80.3915C36.7309 80.8364 34.187 82.1783 32.2572 84.2111C30.3275 86.2438 29.1185 88.8551 28.8161 91.6438C28.1225 97.777 31.444 104.246 37.2526 105.62C41.5075 106.624 43.802 109.253 46.3346 112.09C47.2909 113.131 48.2849 114.116 49.3613 115.239L49.3472 115.258Z"
                                fill="#252B45" />
                            <path
                                d="M68.5249 96.3265C68.3656 96.3807 68.1664 96.4484 67.9274 96.5297C67.6794 96.5844 67.3912 96.6084 67.063 96.6015C66.6647 96.737 66.3856 96.7875 66.2257 96.753C66.0568 96.6919 65.8876 96.5865 65.7182 96.4367C65.2906 96.1378 65.1737 95.8812 65.3676 95.6672C65.5524 95.4266 66.118 95.086 67.0644 94.6456C67.4797 94.3859 68.1165 94.0804 68.9747 93.7293C69.8505 93.3425 70.8017 92.9597 71.8283 92.5809C72.8459 92.1756 73.8149 91.8016 74.7353 91.4589C75.6557 91.1162 76.3815 90.8545 76.9126 90.6739C77.603 90.4391 78.0768 90.3076 78.3338 90.2794C78.5909 90.2512 78.9152 90.3335 79.3066 90.5263C79.8404 90.7891 80.1174 91.1245 80.1377 91.5324C80.1489 91.9137 79.831 92.1552 79.1841 92.2567C79.0513 92.3018 78.8434 92.3874 78.5603 92.5133C78.3038 92.6302 78.0075 92.7606 77.6713 92.9045C77.3616 93.0395 77.052 93.1744 76.7424 93.3094C76.5831 93.3636 76.1494 93.5259 75.4414 93.7963C74.7335 94.0667 73.906 94.3778 72.9591 94.7295C72.0387 95.0721 71.1581 95.4013 70.3174 95.7168C69.4942 95.9968 68.8967 96.2001 68.5249 96.3265ZM75.5354 100.475C75.2364 100.902 74.9666 101.024 74.726 100.839C74.5119 100.645 74.1847 100.075 73.7443 99.1287C73.4845 98.7134 73.1658 98.0811 72.7881 97.2319C72.4279 96.3471 72.0451 95.3959 71.6397 94.3783C71.2609 93.3516 70.9002 92.3781 70.5575 91.4577C70.2148 90.5373 69.9532 89.8116 69.7725 89.2805C69.5377 88.59 69.4062 88.1163 69.378 87.8592C69.3764 87.5931 69.4587 87.2689 69.6249 86.8864C69.8877 86.3526 70.2098 86.0801 70.5912 86.0689C70.9991 86.0487 71.2538 86.3621 71.3553 87.009C71.427 87.1327 71.5126 87.3406 71.6119 87.6327C71.7288 87.8892 71.8592 88.1856 72.0032 88.5218C72.1381 88.8314 72.2731 89.1411 72.408 89.4507C72.4622 89.61 72.6245 90.0437 72.8949 90.7516C73.1653 91.4596 73.4764 92.287 73.8281 93.234C74.1708 94.1544 74.4866 95.0395 74.7756 95.8892C75.0822 96.7034 75.2987 97.2964 75.4251 97.6682C75.4793 97.8275 75.5338 98.0312 75.5885 98.2792C75.6698 98.5182 75.707 98.8018 75.7001 99.1301C75.8356 99.5284 75.8728 99.812 75.8118 99.9809C75.7773 100.141 75.6851 100.305 75.5354 100.475Z"
                                fill="#252B45" />
                            <path
                                d="M111.004 109.914C109.82 111.196 108.591 111.093 107.317 109.604C106.093 108.08 104.914 105.667 103.779 102.365C103.771 101.401 103.631 100.567 103.359 99.864C103.136 99.1256 102.927 98.5644 102.731 98.1805C102.599 97.6766 102.351 96.5837 101.986 94.9019C101.62 93.2201 101.214 91.2687 100.767 89.0478C100.32 86.8269 99.8657 84.6484 99.404 82.5125C98.9569 80.2916 98.6035 78.415 98.3435 76.8826C98.0485 75.3004 97.8981 74.3995 97.8923 74.1798C97.992 74.1095 98.0492 74.0319 98.0639 73.947C98.1284 73.8269 98.1753 73.6819 98.2047 73.512C98.199 73.2923 98.1859 73.115 98.1654 72.9802C98.1597 72.7605 98.129 72.5583 98.0735 72.3737C98.0677 72.154 98.0122 71.9694 97.9068 71.82C97.3537 70.7181 97.0656 69.7277 97.0427 68.8488C97.0344 67.885 96.8709 66.8068 96.5522 65.6142C96.5145 64.8203 96.36 63.4374 96.0886 61.4656C95.7821 59.444 95.4244 57.0854 95.0157 54.39C94.607 51.6945 94.1456 48.9242 93.6315 46.0793C93.1672 43.1992 92.6911 40.5139 92.2032 38.0235C91.7651 35.4979 91.381 33.4191 91.0508 31.7871C90.6855 30.1053 90.4326 29.1647 90.292 28.9654C90.2365 28.7808 90.1985 28.6212 90.178 28.4864C90.1576 28.3516 90.1547 28.2417 90.1694 28.1568C90.1988 27.9869 90.2209 27.8595 90.2356 27.7745C90.3001 27.6544 90.3821 27.5593 90.4818 27.489C90.5463 27.3689 90.6284 27.2738 90.728 27.2035C90.7926 27.0834 90.9171 26.9956 91.1017 26.94C91.1899 26.4303 91.5533 26.0995 92.1921 25.9475C92.1921 25.9475 92.3371 25.9944 92.627 26.0883C92.9317 26.0973 93.3814 26.1532 93.9761 26.256C94.5413 26.5288 95.0245 26.8967 95.4256 27.3598C95.8414 27.738 96.2177 28.2186 96.5542 28.8018C96.9113 29.5197 97.1409 30.2157 97.2431 30.8895C97.3101 31.5136 97.3858 32.4672 97.4701 33.7505C97.5543 35.0337 97.7408 36.9908 98.0294 39.6218C98.076 40.111 98.1766 41.0471 98.3311 42.43C98.4505 43.763 98.6079 45.2558 98.8034 46.9082C98.9636 48.5108 99.1239 50.1134 99.2842 51.716C99.4445 53.3186 99.5888 54.6341 99.7171 55.6625C99.8455 56.6908 99.9448 57.2548 100.015 57.3545C100.085 57.4541 100.148 57.5963 100.204 57.7809C100.259 57.9655 100.308 58.1925 100.348 58.4621C100.354 58.6818 100.37 58.9689 100.396 59.3234C100.423 59.6779 100.441 60.0749 100.453 60.5143C100.535 61.0534 100.615 61.8547 100.693 62.9182C100.822 63.9466 100.943 65.0175 101.056 66.1308C101.22 67.209 101.338 68.17 101.411 69.0138C101.533 69.8224 101.63 70.2765 101.7 70.3762C101.77 70.4758 101.833 70.618 101.889 70.8026C101.944 70.9872 101.975 71.1893 101.981 71.409C101.951 71.5789 101.915 71.7913 101.87 72.0462C101.671 72.1867 101.652 72.424 101.813 72.7581C101.939 73.0423 102.002 73.1844 102.002 73.1844C102.072 73.2841 102.18 73.5434 102.326 73.9624C102.473 74.3814 102.597 74.9279 102.699 75.6017C102.851 76.2405 102.921 76.9744 102.909 77.8035C103.233 79.2157 103.644 81.0148 104.141 83.2005C104.652 85.3014 105.184 87.537 105.737 89.9074C106.289 92.2777 106.832 94.5807 107.364 96.8163C107.896 99.0519 108.394 100.976 108.859 102.587C109.359 104.248 109.752 105.388 110.039 106.007C110.833 107.237 111.277 108.08 111.374 108.534C111.505 109.038 111.382 109.498 111.004 109.914ZM97.2372 99.5926C96.9178 99.6686 96.5985 99.7446 96.2791 99.8206C95.9744 99.8117 95.5599 99.8056 95.0355 99.8024C94.1419 99.9103 93.323 99.9655 92.5789 99.9681C91.8494 99.8857 91.142 99.6758 90.4567 99.3385C89.8212 98.9661 89.215 98.4238 88.6382 97.7116C88.4977 97.5123 88.4936 97.0304 88.6258 96.2658C88.7581 95.5013 89.0778 94.791 89.585 94.135C90.1068 93.3941 90.882 92.9595 91.9103 92.8311C92.2201 94.3283 92.6605 95.3232 93.2315 95.8156C93.8025 96.3081 95.14 96.0364 97.2441 95.0004C98.1613 94.5029 98.9936 93.9906 99.7409 93.4637C100.453 92.8869 101.305 92.1374 102.295 91.2151C103.406 90.3573 104.35 89.58 105.127 88.8831C105.903 88.1863 106.396 87.6153 106.604 87.1701C107.718 85.7879 108.637 84.3938 109.362 82.988C110.101 81.4972 110.416 80.305 110.308 79.4114C110.52 78.4418 110.527 77.7651 110.331 77.3812C110.135 76.9973 109.756 76.4068 109.194 75.6096C108.723 75.0469 108.339 74.6087 108.044 74.295C107.748 73.9814 107.42 73.7278 107.06 73.5343C106.714 73.2558 106.216 72.9728 105.566 72.6853C104.965 72.3628 104.11 71.9961 103 71.5854C102.824 71.3363 102.152 71.1762 100.983 71.1053C99.7793 70.9845 98.6353 70.896 97.5514 70.8398C96.7811 70.4878 95.876 70.1563 94.8361 69.8452C93.8109 69.4492 92.8516 69.3051 91.958 69.413C91.583 69.3044 91.0704 69.1064 90.4202 68.8189C89.7847 68.4465 89.1095 68.1766 88.3948 68.0093C86.8893 67.3552 85.8661 66.0626 85.3251 64.1317C84.7842 62.2008 84.8191 59.9757 85.4298 57.4566C85.4771 56.6773 85.6885 55.7077 86.0641 54.5478C86.4544 53.3029 86.8652 52.1928 87.2963 51.2174C87.7422 50.1571 88.0399 49.5743 88.1894 49.4689C88.1894 49.4689 88.3037 49.3137 88.5324 49.0033C88.7757 48.6079 89.0763 48.1349 89.434 47.5843C89.9616 47.0631 90.479 46.4746 90.9862 45.8186C91.508 45.0777 92.0928 44.4789 92.7405 44.0222C93.5613 43.0705 94.2531 42.359 94.8159 41.8876C95.3435 41.3664 96.3399 40.6638 97.8052 39.7798C98.5085 39.5078 99.3567 39.2826 100.35 39.1044C101.308 38.8764 102.237 38.8183 103.136 38.9302C104.035 39.042 104.678 39.3719 105.065 39.9199C105.501 40.4329 105.531 41.2693 105.156 42.4292C104.678 42.9153 104.01 43.2372 103.151 43.3949C102.343 43.5176 101.392 43.7031 100.299 43.9515C99.2062 44.2 98.1219 44.778 97.0462 45.6856C95.4372 46.8947 94.0214 48.3778 92.7988 50.1349C91.626 51.8569 90.938 53.6847 90.7349 55.6181C90.0015 57.3286 89.6595 58.8006 89.7086 60.034C89.7577 61.2674 89.9931 62.1831 90.4146 62.7809C90.6899 62.9598 91.1029 63.2281 91.6535 63.5858C92.1689 63.8937 92.7767 64.1738 93.4767 64.4261C95.2958 64.7845 96.8425 65.0739 98.1168 65.2943C99.3911 65.5147 100.411 65.691 101.175 65.8232C101.989 65.9204 102.584 66.0232 102.959 66.1318C103.384 66.2053 103.631 66.2918 103.702 66.3915C104.182 66.6495 104.875 66.9443 105.78 67.2759C106.735 67.5723 107.477 67.8319 108.007 68.0549C108.227 68.0491 108.535 68.168 108.93 68.4113C109.29 68.6049 109.608 68.7911 109.883 68.9699C110.153 68.9291 110.626 69.2296 111.302 69.8716C111.943 70.4637 112.613 71.1481 113.309 71.9248C113.971 72.6517 114.46 73.2394 114.776 73.6878C115.057 74.0864 115.224 74.6402 115.276 75.3492C115.378 76.0231 115.381 76.7672 115.284 77.5816C115.152 78.3461 114.97 79.1458 114.738 79.9807C114.506 80.8155 114.045 81.9607 113.356 83.4164C112.717 84.8369 111.942 86.2779 111.033 87.7393C110.174 89.1656 109.267 90.3648 108.311 91.3369C107.704 92.0632 106.881 92.905 105.84 93.8624C104.8 94.8199 103.699 95.7451 102.539 96.638C101.343 97.4811 100.254 98.2114 99.2723 98.8291C98.3052 99.3618 97.6268 99.6163 97.2372 99.5926Z"
                                fill="#252B45" />
                            <path
                                d="M46.9944 93.5688C46.9059 95.9664 46.1362 98.0104 44.1927 99.359C42.4872 100.558 39.907 100.042 38.8771 98.1602C38.1261 96.7597 37.5384 95.2637 37.1274 93.7067C36.9441 93.0765 36.9486 92.3999 37.1404 91.7726C37.3323 91.1454 37.7016 90.5995 38.196 90.2122C39.5692 89.0673 41.0421 88.1502 42.8361 88.0244C43.5057 87.963 44.1772 88.1154 44.7676 88.4627C45.358 88.81 45.8416 89.3369 46.1584 89.9784C46.752 91.0625 47.0424 92.3097 46.9944 93.5688ZM44.381 92.7237C44.2262 92.2398 44.02 91.7772 43.7663 91.345C43.6536 91.2167 43.5129 91.1209 43.3572 91.0664C43.2015 91.012 43.0357 91.0006 42.8748 91.0334C41.8892 91.5692 40.9608 92.2205 40.1063 92.9754C39.798 93.3024 39.6131 93.7418 39.5875 94.2083C39.5619 94.6747 39.6975 95.1347 39.9679 95.4989C40.7929 96.5359 41.5293 96.6977 42.5703 96.0563C43.6113 95.415 44.1872 94.3121 44.381 92.7237Z"
                                fill="#252B45" />
                            <path
                                d="M51.558 121.301C51.4625 121.104 51.203 120.809 51.2219 120.534C51.2336 120.353 51.6228 120.122 51.8822 120.051C52.3937 119.906 52.9353 119.877 53.4573 119.77C55.0513 119.502 56.5381 118.792 57.7482 117.721C58.1146 117.375 58.533 116.789 59.0957 117.3C59.5879 117.753 59.1679 118.322 58.9085 118.759C58.6694 119.135 58.3674 119.467 58.0156 119.741C56.4285 121.004 54.4205 121.618 52.3981 121.457C52.1152 121.422 51.8347 121.37 51.558 121.301Z"
                                fill="#252B45" />
                        </svg>