 <svg width="120%" height="180" viewBox="0 0 151 148" fill="none"
                            xmlns="http://www.w3.org/2000/svg">
                            <path
                                d="M104.735 64.811C108.452 63.2727 112.277 61.8466 115.916 60.097C117.214 59.4385 118.235 58.34 118.797 56.998C120.224 53.0808 123.168 51.3574 126.79 52.7237C130.412 54.09 132.112 57.5667 130.602 61.0306C129.092 64.4944 124.774 66.3074 121.75 63.5263C118.541 60.5696 116.132 61.9236 113.249 63.1427C110.632 64.2257 108.044 65.2964 105.397 66.3917C105.182 65.8712 104.953 65.339 104.735 64.811ZM124.938 54.7092C125.36 56.2763 126.113 57.5496 125.906 58.7325C125.699 59.9155 124.644 60.9442 123.829 62.2569C126.586 62.6053 128.427 61.5823 128.887 58.9274C129.347 56.2724 127.837 55.0425 124.946 54.7062L124.938 54.7092Z"
                                fill="white" />
                            <path
                                d="M92.5209 20.3312C93.7073 19.7868 94.9899 19.4829 96.2944 19.4369C97.599 19.391 98.8997 19.604 100.121 20.0636C101.343 20.5232 102.462 21.2204 103.413 22.1148C104.363 23.0092 105.128 24.0831 105.661 25.2745C107.84 30.1816 105.603 36.1406 100.863 38.093C95.5471 40.2929 90.0037 37.9451 87.6667 32.5288C85.4391 27.3982 87.4051 22.5526 92.5209 20.3312ZM88.7599 31.4668C90.478 35.8504 95.3066 38.1543 99.4681 36.6152C100.468 36.2551 101.386 35.6986 102.168 34.9785C102.95 34.2584 103.58 33.3892 104.022 32.422C104.463 31.4549 104.706 30.4093 104.737 29.3467C104.769 28.2842 104.587 27.2261 104.203 26.2347C102.53 22.1899 97.3965 20.16 93.1306 21.8468C88.8648 23.5336 87.1329 27.3243 88.7753 31.504L88.7599 31.4668Z"
                                fill="white" />
                            <path
                                d="M37.0184 86.8056C36.7084 93.8223 32.8966 97.6376 26.9891 96.8512C23.3012 96.3569 20.0796 93.475 19.4176 90.0653C19.0631 88.2181 19.334 86.3054 20.1874 84.6293C21.0408 82.9531 22.4281 81.6089 24.1304 80.8088C27.8921 78.9561 31.6383 79.4438 34.3196 82.5143C35.4331 83.7953 36.1013 85.452 36.9692 86.9391L37.0184 86.8056ZM34.4868 86.7907C32.7115 82.5005 29.3333 80.6501 25.7126 82.0438C22.0918 83.4376 20.4711 87.7919 22.0425 91.4001C22.3677 92.2461 22.861 93.0173 23.4926 93.6672C24.1243 94.3171 24.8811 94.8322 25.7175 95.1813C26.5539 95.5303 27.4523 95.7062 28.3586 95.6982C29.2648 95.6902 30.16 95.4985 30.9901 95.1347C34.7591 93.6361 36.0292 90.6025 34.457 86.803L34.4868 86.7907Z"
                                fill="white" />
                            <path
                                d="M100.065 124.428C96.2062 126.025 92.368 124.452 90.8453 120.667C89.3654 117.091 91.2755 112.321 94.7486 110.822C97.7787 109.516 102.5 111.813 103.89 115.278C105.459 119.175 103.961 122.816 100.065 124.428ZM96.277 112.811C92.7926 114.366 91.5017 117.539 92.69 120.095C92.9556 120.742 93.3516 121.326 93.8531 121.813C94.3546 122.299 94.951 122.677 95.6051 122.923C96.2592 123.169 96.9568 123.277 97.6546 123.241C98.3524 123.205 99.0354 123.026 99.6608 122.715C100.317 122.465 100.91 122.074 101.4 121.571C101.89 121.068 102.264 120.465 102.496 119.802C102.729 119.14 102.814 118.435 102.746 117.736C102.678 117.037 102.458 116.362 102.102 115.757C100.663 113.078 98.5181 111.893 96.2616 112.774L96.277 112.811Z"
                                fill="white" />
                            <path
                                d="M57.6364 30.2902C55.1484 32.1906 52.5837 31.7801 51.5807 28.5985C50.671 25.7267 51.9346 23.1399 55.0956 21.919C58.0028 20.716 60.4606 21.3101 61.7272 24.2868C63.2306 27.836 61.0115 29.3551 57.6364 30.2902ZM60.4201 26.7261L61.4613 26.1907C60.4801 25.2295 59.4317 23.3904 58.5364 23.4997C56.7384 23.7108 55.0784 24.5679 53.8651 25.9115C53.297 26.643 54.2595 28.6744 54.5382 30.1266C55.5884 28.4555 55.6181 26.4228 56.3647 26.1225C57.4651 25.6672 59.0509 26.4479 60.4293 26.7484L60.4201 26.7261Z"
                                fill="white" />
                            <path
                                d="M89.9767 98.0276C94.2971 100.324 92.2514 105.629 94.3831 108.971L88.8796 98.6383L89.9767 98.0276Z"
                                fill="white" />
                            <path
                                d="M36.9785 86.9614L47.098 82.774L47.5695 84.1029C44.0951 85.1139 41.3782 88.5023 37.0351 86.8247L36.9785 86.9614Z"
                                fill="white" />
                            <path
                                d="M53.1893 108.666C56.487 112.379 59.7458 115.603 64.8425 115.507C64.8437 116.073 64.6285 116.618 64.241 117.031C63.8536 117.443 63.3231 117.692 62.7582 117.727C58.9307 118.518 52.1658 113.418 53.1893 108.666Z"
                                fill="white" />
                            <path fill-rule="evenodd" clip-rule="evenodd"
                                d="M54.2136 60.8886L42.6227 55.7746C41.8705 56.282 41.1362 56.8609 40.4021 57.4396C38.7574 58.7361 37.1134 60.0321 35.2699 60.524C31.2315 61.6029 27.3917 58.3846 26.8423 54.5103C26.2134 49.9809 29.2221 46.2453 34.0277 45.5892C35.9661 45.3775 37.9114 45.9209 39.4595 47.1066C41.0075 48.2922 42.0391 50.0288 42.3399 51.9553C42.4322 52.8709 42.4641 53.7916 42.4352 54.7113C43.8882 50.3306 41.9291 46.2906 37.462 44.4815C35.4076 43.621 33.1043 43.5667 31.0116 44.3293C28.9189 45.092 27.1906 46.6155 26.1716 48.5961C24.0694 52.6707 24.8096 57.006 28.1178 59.8868C31.5786 62.9048 36.377 62.9048 40.7418 59.984C41.6861 59.3407 43.0993 58.5469 44.0674 58.7821C46.4705 59.3615 48.8181 60.1671 51.1549 60.969C52.0636 61.2808 52.9707 61.5921 53.8788 61.8893C49.4971 76.7651 53.8195 87.0639 66.5514 93.8829C66.2242 94.5166 65.9321 95.1029 65.6518 95.6656C65.1826 96.6073 64.7464 97.4829 64.2334 98.4038C63.414 99.875 62.5976 101.354 61.7464 102.916C56.1204 101.926 51.4136 104.231 49.8011 109.026C49.0459 111.19 49.0771 113.551 49.8892 115.695C50.7013 117.838 52.2424 119.627 54.2421 120.748C56.3951 122.015 58.948 122.42 61.3878 121.883C63.8275 121.345 65.9733 119.903 67.3939 117.848C70.6132 113.338 69.5215 108.468 64.0393 103.091L68.2677 94.7054C82.4475 98.9833 93.2718 94.6261 99.4893 83.3449L114.296 86.9714C113.715 89.3543 113.438 90.5575 113.531 91.7294C113.812 95.4187 115.251 98.5592 118.827 100.067C121.895 101.357 125.052 101.557 127.9 99.2643C129.583 97.9139 130.738 96.0158 131.165 93.9009C131.591 91.786 131.262 89.5885 130.235 87.6913C127.977 83.749 123.659 82.3222 119.127 83.9972C118.586 84.1974 118.015 84.4794 117.444 84.7621C116.134 85.4102 114.816 86.0619 113.822 85.7396C110.5 84.6707 107.317 83.195 104.246 81.7717C103.148 81.2623 102.063 80.7596 100.992 80.2846L101.927 70.2315L100.983 70.0559C100.612 77.1764 97.7402 83.2849 93.2985 88.5453C89.7493 92.7486 88.602 93.5116 86.6748 90.4892C86.3594 90.6244 86.04 90.752 85.7169 90.872C85.787 91.0907 85.8579 91.3117 85.9297 91.5355C86.0445 91.8938 86.1617 92.2592 86.2816 92.6332C83.531 93.7193 80.5827 94.2145 77.6282 94.0868C74.6737 93.959 71.7791 93.2112 69.1326 91.8917L69.905 90.3858C69.5813 90.2423 69.2618 90.0908 68.9469 89.9315L68.2049 91.544C61.5759 88.8878 57.4729 84.7597 55.5907 78.6327C52.2094 67.6832 57.4829 59.4661 64.4865 51.7261C60.924 52.5061 58.9902 55.0095 56.9817 57.6097C56.118 58.7279 55.2405 59.864 54.2136 60.8886ZM77.945 50.1837C78.0991 50.1804 78.2535 50.1787 78.4084 50.1787C87.7385 50.1787 95.6474 56.2631 98.3838 64.6806C98.5373 65.0606 98.6852 65.4458 98.8279 65.8359L98.7346 65.8812C98.8657 66.3856 98.9785 66.8974 99.0723 67.4158L102.584 66.3892L89.6378 49.6876L93.6682 39.2243L92.5286 38.764L87.1067 49.716C80.1592 47.6793 73.2076 46.5586 66.2892 49.6217C63.3904 43.837 60.6186 38.2958 57.8436 32.7472L57.6503 32.8272L66.022 53.0589C69.0499 50.6713 73.5665 49.7493 77.945 50.1837ZM53.4073 106.753C54.1531 106.033 55.0369 105.47 56.0055 105.1C60.2865 103.303 65.4628 105.184 67.2091 109.173C67.6219 110.123 67.8422 111.146 67.8573 112.182C67.8723 113.218 67.6817 114.247 67.2966 115.209C66.9116 116.17 66.3395 117.046 65.6137 117.786C64.8879 118.525 64.0227 119.114 63.0681 119.516C58.3187 121.508 53.5006 119.713 51.6853 115.326C51.2755 114.374 51.0625 113.348 51.0591 112.311C51.0557 111.275 51.2619 110.248 51.6654 109.292C52.069 108.337 52.6615 107.473 53.4073 106.753ZM129.555 89.0786C131.13 92.9901 129.255 96.9619 125.002 98.7218C121.116 100.338 117.25 98.9076 115.664 95.1577C114.077 91.4077 116.22 86.2104 119.94 84.7841C121.789 84.159 123.806 84.254 125.588 85.05C127.37 85.846 128.786 87.2845 129.555 89.0786Z"
                                fill="white" />
                            <path
                                d="M76.9085 58.1782C75.5717 67.0795 63.3167 69.8828 63.4085 71.4414C63.5003 73 76.3682 75.839 76.9085 85.1782C79.7587 76.2308 83.106 73.1682 92.4085 71.4414C80.9085 70.1787 79.4085 65.1787 76.9085 58.1782Z"
                                fill="white" />
                        </svg>