<svg width="211" height="40" viewBox="0 0 211 40" fill="none" xmlns="http://www.w3.org/2000/svg">
<path d="M14.2933 4.10402C17.218 4.10402 19.7496 4.59147 21.8881 5.56637C24.0581 6.54128 25.7248 7.92501 26.8884 9.71757C28.052 11.5101 28.6338 13.6329 28.6338 16.0859C28.6338 18.5074 28.052 20.6302 26.8884 22.4542C25.7248 24.2467 24.0581 25.6305 21.8881 26.6054C19.7496 27.5488 17.218 28.0206 14.2933 28.0206H7.64197V37.1249H0V4.10402H14.2933ZM13.8688 21.7938C16.1645 21.7938 17.9099 21.3063 19.1049 20.3314C20.3 19.3251 20.8975 17.9099 20.8975 16.0859C20.8975 14.2304 20.3 12.8152 19.1049 11.8403C17.9099 10.834 16.1645 10.3308 13.8688 10.3308H7.64197V21.7938H13.8688Z" fill="white"/>
<path d="M40.5994 15.0953C41.48 13.8688 42.6593 12.941 44.1374 12.3121C45.6469 11.6831 47.3766 11.3686 49.3264 11.3686V18.1615C48.5087 18.0986 47.9584 18.0671 47.6753 18.0671C45.5683 18.0671 43.9173 18.6646 42.7222 19.8597C41.5272 21.0233 40.9297 22.7844 40.9297 25.143V37.1249H33.5707V11.746H40.5994V15.0953Z" fill="white"/>
<path d="M65.5479 37.5023C62.8748 37.5023 60.469 36.9519 58.3305 35.8512C56.2234 34.7191 54.5724 33.1624 53.3773 31.1811C52.1823 29.1999 51.5848 26.9513 51.5848 24.4354C51.5848 21.9196 52.1823 19.671 53.3773 17.6897C54.5724 15.7085 56.2234 14.1675 58.3305 13.0668C60.469 11.9347 62.8748 11.3686 65.5479 11.3686C68.221 11.3686 70.6111 11.9347 72.7181 13.0668C74.8252 14.1675 76.4762 15.7085 77.6713 17.6897C78.8663 19.671 79.4638 21.9196 79.4638 24.4354C79.4638 26.9513 78.8663 29.1999 77.6713 31.1811C76.4762 33.1624 74.8252 34.7191 72.7181 35.8512C70.6111 36.9519 68.221 37.5023 65.5479 37.5023ZM65.5479 31.4642C67.4348 31.4642 68.9758 30.8352 70.1708 29.5773C71.3973 28.2879 72.0105 26.5739 72.0105 24.4354C72.0105 22.2969 71.3973 20.5987 70.1708 19.3408C68.9758 18.0514 67.4348 17.4067 65.5479 17.4067C63.661 17.4067 62.1043 18.0514 60.8778 19.3408C59.6513 20.5987 59.0381 22.2969 59.0381 24.4354C59.0381 26.5739 59.6513 28.2879 60.8778 29.5773C62.1043 30.8352 63.661 31.4642 65.5479 31.4642Z" fill="white"/>
<path d="M92.4492 12.3121H98.959V17.9728H92.6379V37.1249H85.2789V17.9728H81.3636V12.3121H85.2789V11.1799C85.2789 8.28667 86.1281 5.99093 87.8263 4.29271C89.5559 2.5945 91.9775 1.74539 95.0909 1.74539C96.1916 1.74539 97.2294 1.87118 98.2043 2.12277C99.2106 2.34291 100.044 2.67312 100.704 3.1134L98.7703 8.44391C97.9212 7.84639 96.9306 7.54763 95.7985 7.54763C93.5656 7.54763 92.4492 8.77412 92.4492 11.2271V12.3121ZM106.412 11.746H113.771V37.1249H106.412V11.746ZM110.092 8.20804C108.739 8.20804 107.639 7.81494 106.79 7.02873C105.941 6.24252 105.516 5.26761 105.516 4.10402C105.516 2.94043 105.941 1.96553 106.79 1.17932C107.639 0.393105 108.739 0 110.092 0C111.444 0 112.545 0.377382 113.394 1.13215C114.243 1.88691 114.668 2.83036 114.668 3.96251C114.668 5.18899 114.243 6.21107 113.394 7.02873C112.545 7.81494 111.444 8.20804 110.092 8.20804Z" fill="white"/>
<path d="M136.96 35.8984C136.237 36.433 135.341 36.8419 134.271 37.1249C133.234 37.3765 132.133 37.5023 130.969 37.5023C127.95 37.5023 125.607 36.7318 123.941 35.1908C122.305 33.6498 121.488 31.3855 121.488 28.3979V17.9728H117.572V12.3121H121.488V6.13245H128.847V12.3121H135.168V17.9728H128.847V28.3036C128.847 29.3728 129.114 30.2062 129.649 30.8037C130.215 31.3698 131.001 31.6529 132.007 31.6529C133.171 31.6529 134.161 31.3384 134.979 30.7094L136.96 35.8984Z" fill="white"/>
<path d="M152.875 39.0669C151.512 38.7262 150.286 38.0448 149.196 37.0228C148.139 36.0007 147.458 34.9445 147.151 33.8543C147.117 33.4114 147.066 32.8323 146.998 32.1168C146.964 31.4013 146.947 30.737 146.947 30.1238C146.981 29.5105 147.032 29.1528 147.1 29.0506C147.203 28.9824 147.254 28.778 147.254 28.4373C147.22 28.3011 147.237 28.0796 147.305 27.773C147.407 27.4323 147.509 27.0916 147.611 26.7509C147.782 26.3421 147.867 26.0184 147.867 25.7799C147.867 25.5074 147.85 25.303 147.816 25.1667C147.816 25.1667 147.867 25.0645 147.969 24.8601C148.071 24.6216 148.191 24.4342 148.327 24.2979C148.531 24.0935 148.616 23.8891 148.582 23.6847C148.582 23.4803 148.582 23.3781 148.582 23.3781C148.548 23.2418 148.582 23.0544 148.685 22.8159C148.787 22.5774 148.889 22.3901 148.991 22.2538C149.059 22.1856 149.144 22.0494 149.247 21.845C149.383 21.6065 149.451 21.4872 149.451 21.4872C149.451 21.385 149.519 21.1125 149.656 20.6696C149.826 20.2267 150.013 19.7497 150.218 19.2387C150.422 18.6936 150.609 18.1996 150.78 17.7567C150.984 17.3138 151.138 17.0242 151.24 16.8879V16.7857C151.376 16.445 151.563 16.0873 151.802 15.7125C151.836 15.5422 151.921 15.2696 152.057 14.8948C152.194 14.486 152.347 14.0942 152.517 13.7195C152.892 12.9018 153.352 11.9819 153.897 10.9599C154.476 9.90372 155.09 8.86461 155.737 7.84253C156.384 6.78639 156.997 5.84949 157.577 5.03183C158.19 4.1801 158.718 3.54982 159.161 3.14099C159.74 2.49368 160.2 2.15299 160.541 2.11892C160.881 2.08485 161.307 2.32333 161.818 2.83437C162.057 3.07285 162.227 3.36244 162.329 3.70313C162.431 4.04382 162.466 4.35045 162.431 4.623C162.431 4.86149 162.363 4.99776 162.227 5.03183C161.989 5.16811 161.631 5.5599 161.154 6.20722C160.677 6.82046 160.132 7.55295 159.519 8.40467C158.939 9.2564 158.36 10.1422 157.781 11.0621C157.236 11.9479 156.759 12.7485 156.35 13.4639C155.907 14.4519 155.498 15.3207 155.124 16.0702C154.749 16.7857 154.561 17.1434 154.561 17.1434C154.527 17.2456 154.493 17.3308 154.459 17.3989C154.425 17.4671 154.391 17.5352 154.357 17.6033C153.846 18.6595 153.42 19.6305 153.079 20.5163C152.739 21.368 152.398 22.2708 152.057 23.2248C151.853 23.4632 151.734 23.7017 151.7 23.9402C151.666 24.1787 151.649 24.2979 151.649 24.2979C151.58 24.2639 151.529 24.349 151.495 24.5534C151.461 24.7238 151.393 24.9282 151.291 25.1667C151.12 25.303 151.018 25.5244 150.984 25.831C150.95 26.1036 150.933 26.3761 150.933 26.6487C150.695 27.2619 150.473 28.0115 150.269 28.8973C150.064 29.749 149.911 30.5837 149.809 31.4013C149.741 32.1849 149.724 32.7982 149.758 33.2411C149.826 33.8203 150.115 34.3483 150.626 34.8253C151.172 35.2682 151.819 35.643 152.568 35.9496C152.943 36.0859 153.267 36.2051 153.539 36.3073C153.812 36.3754 154.067 36.4095 154.306 36.4095C154.579 36.4436 154.919 36.4436 155.328 36.4095C155.771 36.3414 156.367 36.2392 157.117 36.1029H157.066C157.508 36.0347 157.968 35.9496 158.445 35.8474C158.956 35.7111 159.433 35.5919 159.876 35.4896C160.285 35.4215 160.677 35.3534 161.052 35.2852C161.426 35.183 161.716 35.0978 161.92 35.0297C162.67 34.8253 163.215 34.689 163.556 34.6209C163.896 34.5187 164.152 34.5357 164.322 34.672C164.493 34.8083 164.612 34.9786 164.68 35.183C164.748 35.3534 164.731 35.5919 164.629 35.8985C164.561 36.0688 164.288 36.3243 163.811 36.665C163.334 36.9716 162.755 37.2783 162.074 37.5849C161.426 37.8915 160.779 38.147 160.132 38.3515C159.45 38.6581 158.633 38.8966 157.679 39.0669C156.759 39.2372 155.856 39.3224 154.97 39.3224C154.119 39.3224 153.42 39.2372 152.875 39.0669Z" fill="#92FFFE"/>
<path d="M169.013 35.2852C168.876 35.0127 168.706 34.8083 168.502 34.672C168.297 34.5016 168.195 34.3483 168.195 34.2121C168.195 34.0758 168.178 33.9395 168.144 33.8032C168.144 33.6329 168.076 33.4796 167.939 33.3433C167.769 33.1389 167.786 32.6789 167.991 31.9635C168.195 31.214 168.536 30.3111 169.013 29.255C169.49 28.1648 170.052 27.0235 170.699 25.831C170.972 25.5585 171.244 25.2008 171.517 24.7579C171.789 24.315 171.994 24.0254 172.13 23.8891C172.13 23.7528 172.181 23.6336 172.283 23.5314C172.385 23.3951 172.505 23.327 172.641 23.327V23.0203C172.641 22.85 172.794 22.5604 173.101 22.1516C173.442 21.7427 173.85 21.2998 174.327 20.8229C174.804 20.3118 175.298 19.8349 175.809 19.392C176.32 18.915 176.746 18.5743 177.087 18.3699C177.802 17.8929 178.535 17.6033 179.284 17.5011C180.068 17.3989 180.732 17.5693 181.278 18.0122C181.38 18.1144 181.55 18.2847 181.789 18.5232C182.027 18.7617 182.3 19.0342 182.606 19.3409C182.947 19.6134 183.288 19.903 183.628 20.2096L185.519 21.8961L184.599 24.4512C184.156 25.814 184.037 27.0064 184.242 28.0285C184.48 29.0506 184.821 29.9364 185.264 30.6859C185.434 31.0607 185.775 31.4184 186.286 31.7591C186.831 32.0998 187.342 32.3042 187.819 32.3723C188.091 32.4064 188.347 32.5086 188.585 32.6789C188.824 32.8493 188.943 33.1218 188.943 33.4966C188.943 33.8373 188.875 34.1098 188.739 34.3143C188.602 34.5187 188.364 34.6549 188.023 34.7231C186.899 34.8594 185.843 34.5868 184.855 33.9054C183.901 33.224 183.015 32.0998 182.197 30.5326C182.061 30.3282 181.874 29.9534 181.635 29.4083C181.431 28.8291 181.312 28.4544 181.278 28.284C181.141 28.4544 180.886 28.778 180.511 29.255C180.136 29.6979 179.847 30.0215 179.642 30.226C177.223 32.6789 175.128 34.3313 173.356 35.183C171.619 36.0007 170.171 36.0347 169.013 35.2852ZM170.852 32.4234C170.852 32.6619 171.21 32.6619 171.926 32.4234C172.675 32.1509 173.476 31.6739 174.327 30.9925C175.486 30.0045 176.644 28.9143 177.802 27.7219C178.995 26.5295 179.949 25.4222 180.664 24.4001L181.789 22.5604C181.448 21.7768 181.073 21.2487 180.664 20.9762C180.29 20.6696 179.966 20.5163 179.693 20.5163C179.25 20.5163 178.586 20.9251 177.7 21.7427C176.849 22.5604 175.929 23.6506 174.941 25.0134C173.953 26.3761 173.016 27.8752 172.13 29.5105C171.789 30.1919 171.483 30.8562 171.21 31.5036C170.972 32.1168 170.852 32.4234 170.852 32.4234Z" fill="#92FFFE"/>
<path d="M196.635 36.2562C195.954 36.1881 195.528 36.1029 195.358 36.0007C195.222 35.8985 195.051 35.6259 194.847 35.183C194.574 34.8764 194.404 34.6379 194.336 34.4676C194.302 34.2972 194.302 34.1439 194.336 34.0076C194.506 34.0076 194.659 34.0076 194.796 34.0076C194.932 33.9736 195.017 33.9054 195.051 33.8032C195.051 33.701 195.102 33.6329 195.204 33.5988C195.341 33.5647 195.477 33.5647 195.613 33.5988C196.261 33.6329 197.078 33.4285 198.066 32.9856C199.088 32.5086 200.179 31.8613 201.337 31.0436C202.529 30.1919 203.688 29.255 204.812 28.2329C205.698 27.0746 206.345 26.1717 206.754 25.5244C207.163 24.843 207.401 24.2979 207.469 23.8891C207.538 23.4462 207.486 23.0714 207.316 22.7648C207.18 22.4923 206.686 22.3901 205.834 22.4582C204.982 22.4923 204.028 22.85 202.972 23.5314C201.507 24.4512 200.332 25.303 199.446 26.0866C198.56 26.8701 197.743 27.7559 196.993 28.744C196.721 29.0846 196.448 29.4935 196.175 29.9704C195.937 30.4474 195.733 30.8562 195.562 31.1969C195.392 31.5376 195.307 31.708 195.307 31.708C195.307 31.8442 195.102 32.0146 194.693 32.219C194.319 32.4234 193.995 32.5256 193.722 32.5256C193.586 32.4575 193.399 32.3382 193.16 32.1679C192.956 31.9635 192.82 31.708 192.752 31.4013C192.513 31.231 192.343 31.0947 192.24 30.9925C192.138 30.8903 192.07 30.7711 192.036 30.6348C192.002 30.4304 192.053 30.1067 192.189 29.6638C192.326 29.2209 192.513 28.5225 192.752 27.5686C192.956 26.6828 193.177 25.7629 193.416 24.809C193.688 23.855 193.944 23.0374 194.182 22.356C194.421 21.6746 194.591 21.2998 194.693 21.2317C194.693 21.2317 194.762 21.0784 194.898 20.7718C195.034 20.4652 195.102 20.1074 195.102 19.6986C195.17 19.2898 195.273 18.932 195.409 18.6254C195.579 18.3188 195.664 18.0973 195.664 17.9611C195.801 17.8589 196.005 17.45 196.278 16.7346C196.55 16.0191 196.891 15.0822 197.3 13.9239C197.3 13.8217 197.419 13.498 197.657 12.9529C197.896 12.3737 198.186 11.7094 198.526 10.9599C198.867 10.1763 199.208 9.37565 199.548 8.55799C199.923 7.70626 200.23 6.95673 200.468 6.30942C200.877 5.73025 201.184 5.20218 201.388 4.72521C201.627 4.21417 201.865 3.90755 202.103 3.80534C202.274 3.77127 202.478 3.7883 202.717 3.85644C202.989 3.89051 203.245 3.97569 203.483 4.11196C203.756 4.24824 203.977 4.45266 204.148 4.72521C204.25 4.89555 204.318 5.04886 204.352 5.18514C204.386 5.32142 204.335 5.57694 204.199 5.9517C204.062 6.29239 203.79 6.8886 203.381 7.74032C203.006 8.55799 202.444 9.75041 201.695 11.3176C200.741 13.3617 199.957 15.1844 199.344 16.7857C198.731 18.3869 198.22 19.8008 197.811 21.0273C197.402 22.2538 197.027 23.3099 196.687 24.1957L196.431 25.32L197.709 24.0935C198.22 23.7188 198.782 23.2588 199.395 22.7137C200.008 22.1686 200.553 21.6916 201.03 21.2828C201.303 21.0784 201.661 20.874 202.103 20.6696C202.58 20.4311 203.04 20.2267 203.483 20.0563C203.926 19.886 204.25 19.7838 204.454 19.7497C204.556 19.7156 204.812 19.6645 205.221 19.5964C205.63 19.5283 206.124 19.4942 206.703 19.4942C207.452 19.4942 208.049 19.6645 208.491 20.0052C208.968 20.3459 209.428 20.891 209.871 21.6405C210.246 22.356 210.399 23.1736 210.331 24.0935C210.263 24.9793 209.991 25.814 209.514 26.5976C209.343 26.7339 209.173 26.9213 209.002 27.1597C208.832 27.3642 208.747 27.5345 208.747 27.6708C208.713 27.9093 208.406 28.4033 207.827 29.1528C207.248 29.8682 206.669 30.5496 206.09 31.1969C205.476 31.8442 204.727 32.4916 203.841 33.1389C202.955 33.7521 202.069 34.3143 201.184 34.8253C200.332 35.3023 199.599 35.643 198.986 35.8474C198.714 35.8814 198.322 35.9496 197.811 36.0518C197.3 36.1199 196.908 36.1881 196.635 36.2562Z" fill="#92FFFE"/>
</svg>
